<svg width="56" height="56" viewBox="0 0 56 56" fill="none" xmlns="http://www.w3.org/2000/svg">
<rect width="56" height="56" rx="28" fill="#B2C9FF"/>
<path d="M24.31 30.7002L25.81 32.2002L29.81 28.2002" stroke="#051333" stroke-width="1.5" stroke-linecap="round" stroke-linejoin="round"/>
<path d="M25 22H29C31 22 31 21 31 20C31 18 30 18 29 18H25C24 18 23 18 23 20C23 22 24 22 25 22Z" stroke="#051333" stroke-width="1.5" stroke-miterlimit="10" stroke-linecap="round" stroke-linejoin="round"/>
<path d="M31 20.02C34.33 20.2 36 21.43 36 26V32C36 36 35 38 30 38H24C19 38 18 36 18 32V26C18 21.44 19.67 20.2 23 20.02" stroke="#051333" stroke-width="1.5" stroke-miterlimit="10" stroke-linecap="round" stroke-linejoin="round"/>
</svg>
