<svg width="503" height="410" viewBox="0 0 503 410" fill="none" xmlns="http://www.w3.org/2000/svg">
<path d="M502.148 360.302H0V360.577H502.148V360.302Z" fill="#EBEBEB"/>
<path d="M451.831 378.009H418.569V378.284H451.831V378.009Z" fill="#EBEBEB"/>
<path d="M332.639 381.002H323.912V381.277H332.639V381.002Z" fill="#EBEBEB"/>
<path d="M417.566 367.796H398.293V368.071H417.566V367.796Z" fill="#EBEBEB"/>
<path d="M96.0687 369.645H52.6931V369.92H96.0687V369.645Z" fill="#EBEBEB"/>
<path d="M111.37 369.645H105.013V369.92H111.37V369.645Z" fill="#EBEBEB"/>
<path d="M226.121 374.289H132.038V374.564H226.121V374.289Z" fill="#EBEBEB"/>
<path d="M238.015 311.22H44.0956C42.5764 311.217 41.1204 310.553 40.0471 309.375C38.9739 308.197 38.3711 306.6 38.3711 304.936V6.22879C38.3843 4.57368 38.9929 2.99112 40.0648 1.82486C41.1366 0.658599 42.5851 0.0028353 44.0956 0H238.015C239.536 0 240.995 0.662043 242.07 1.84049C243.145 3.01893 243.75 4.61724 243.75 6.28382V304.936C243.75 306.602 243.145 308.201 242.07 309.379C240.995 310.558 239.536 311.22 238.015 311.22V311.22ZM44.0956 0.2201C42.643 0.223015 41.2509 0.857356 40.2247 1.98389C39.1985 3.11042 38.6222 4.63709 38.6222 6.22879V304.936C38.6222 306.527 39.1985 308.054 40.2247 309.181C41.2509 310.307 42.643 310.942 44.0956 310.944H238.015C239.469 310.942 240.862 310.308 241.89 309.181C242.917 308.055 243.496 306.528 243.499 304.936V6.22879C243.496 4.63608 242.917 3.10944 241.89 1.98322C240.862 0.856999 239.469 0.223009 238.015 0.2201H44.0956Z" fill="#EBEBEB"/>
<path d="M455.265 311.22H261.336C259.816 311.217 258.358 310.554 257.284 309.376C256.209 308.198 255.604 306.601 255.601 304.936V6.22879C255.617 4.57268 256.228 2.99013 257.301 1.82417C258.375 0.658215 259.824 0.00280438 261.336 0H455.265C456.774 0.00572751 458.22 0.662771 459.289 1.82872C460.359 2.99467 460.966 4.57558 460.98 6.22879V304.936C460.98 306.599 460.378 308.193 459.307 309.371C458.236 310.549 456.783 311.214 455.265 311.22V311.22ZM261.336 0.2201C259.882 0.223009 258.489 0.856999 257.461 1.98322C256.433 3.10944 255.855 4.63608 255.852 6.22879V304.936C255.855 306.528 256.433 308.055 257.461 309.181C258.489 310.308 259.882 310.942 261.336 310.944H455.265C456.719 310.942 458.112 310.308 459.14 309.181C460.167 308.055 460.746 306.528 460.749 304.936V6.22879C460.746 4.63608 460.167 3.10944 459.14 1.98322C458.112 0.856999 456.719 0.223009 455.265 0.2201H261.336Z" fill="#EBEBEB"/>
<path d="M270.639 360.302H441.902L454.054 31.012H282.791L270.639 360.302Z" fill="#E6E6E6"/>
<path d="M266.448 360.302H437.711L449.863 31.012H278.6L266.448 360.302Z" fill="#F0F0F0"/>
<path d="M429.506 350.936L440.975 40.377H286.806L275.347 350.936H429.506Z" fill="#FAFAFA"/>
<path d="M103.829 94.9286L112.788 119.139C112.527 189.142 115.419 193.181 115.439 205.22H92.8223C92.0088 146.619 99.9327 159.792 103.829 94.9286Z" fill="#EBEBEB"/>
<path d="M116.498 166.417C98.2501 111.48 56.3308 128.494 58.249 148.567C60.1672 168.64 126.933 198.012 116.498 166.417Z" fill="#EBEBEB"/>
<path d="M109.573 198.089C99.6305 162.686 73.2175 168.464 73.2175 184.729C73.2175 200.994 115.287 218.459 109.573 198.089Z" fill="#EBEBEB"/>
<path d="M108.871 134.194C93.2738 86.873 54.4276 93.3769 57.561 113.351C60.6944 133.325 117.839 161.409 108.871 134.194Z" fill="#EBEBEB"/>
<path d="M108.973 112.966C110.419 80.7212 81.2748 67.4493 83.2934 86.7189C85.312 105.989 108.14 131.509 108.973 112.966Z" fill="#EBEBEB"/>
<path d="M106.791 145.98C112.947 106.253 150.287 91.1319 146.119 113.626C141.952 136.12 103.256 168.827 106.791 145.98Z" fill="#EBEBEB"/>
<path d="M103.653 123.519C96.4022 81.8547 129.946 63.3444 130.91 83.4284C131.874 103.512 107.821 147.466 103.653 123.519Z" fill="#EBEBEB"/>
<path d="M100.739 170.576C115.563 130.43 147.298 140.39 144.095 158.658C140.891 176.926 92.2127 193.687 100.739 170.576Z" fill="#EBEBEB"/>
<path d="M108.061 198.617C107.73 172.712 129.152 166.021 129.433 181.009C129.714 195.998 108.242 213.496 108.061 198.617Z" fill="#EBEBEB"/>
<path d="M101.51 230.003C95.8785 230.021 90.4108 227.929 86.0139 224.074C81.617 220.219 78.5551 214.832 77.3364 208.808C76.7507 205.578 75.9072 202.411 74.8156 199.343L74.6248 198.848H128.375L128.184 199.343C127.092 202.411 126.249 205.578 125.663 208.808C124.447 214.829 121.388 220.214 116.995 224.07C112.602 227.925 107.138 230.018 101.51 230.003V230.003Z" fill="#E0E0E0"/>
<path d="M49.6082 360.291H73.4602L73.4602 229.959H49.6082L49.6082 360.291Z" fill="#E6E6E6"/>
<path d="M56.7675 360.301H49.6169V344.597H64.2596L56.7675 360.301Z" fill="#F0F0F0"/>
<path d="M213.118 360.291H236.97L236.97 229.959H213.118V360.291Z" fill="#E6E6E6"/>
<path d="M49.615 355.063H219.341V229.959L49.615 229.959V355.063Z" fill="#F0F0F0"/>
<path d="M212.191 360.301H219.342V344.597H204.689L212.191 360.301Z" fill="#F0F0F0"/>
<path d="M55.1705 288.825H213.799V238.763L55.1705 238.763V288.825Z" fill="#E6E6E6"/>
<path d="M98.0141 254.324H166.146C173.125 254.324 179.794 248.15 184.594 237.244H79.5752C84.3657 248.15 91.0442 254.324 98.0141 254.324Z" fill="#F0F0F0"/>
<path d="M55.1705 346.986H213.799V296.924H55.1705V346.986Z" fill="#E6E6E6"/>
<path d="M98.0141 312.474H166.146C173.125 312.474 179.794 306.3 184.594 295.395H79.5752C84.3657 306.3 91.0442 312.474 98.0141 312.474Z" fill="#F0F0F0"/>
<path d="M251.064 410C358.606 410 445.787 404.423 445.787 397.543C445.787 390.662 358.606 385.085 251.064 385.085C143.521 385.085 56.3406 390.662 56.3406 397.543C56.3406 404.423 143.521 410 251.064 410Z" fill="#F5F5F5"/>
<path d="M406.609 286.789H146.737C145.404 286.81 144.083 286.522 142.859 285.944C141.635 285.365 140.536 284.51 139.636 283.433C138.736 282.355 138.054 281.082 137.635 279.695C137.216 278.308 137.07 276.84 137.206 275.387L152.813 71.7961C153.095 68.7131 154.399 65.8502 156.477 63.7492C158.555 61.6483 161.264 60.4549 164.091 60.395H423.963C425.296 60.3753 426.617 60.6644 427.841 61.2433C429.064 61.8222 430.163 62.6779 431.063 63.7544C431.964 64.8308 432.647 66.1036 433.068 67.4895C433.488 68.8753 433.637 70.3429 433.504 71.7961L417.897 275.387C417.611 278.471 416.305 281.332 414.225 283.432C412.146 285.533 409.436 286.727 406.609 286.789V286.789Z" fill="#3F79FF"/>
<path opacity="0.7" d="M406.609 286.789H146.737C145.404 286.81 144.083 286.522 142.859 285.944C141.635 285.365 140.536 284.51 139.636 283.433C138.736 282.355 138.054 281.082 137.635 279.695C137.216 278.308 137.07 276.84 137.206 275.387L152.813 71.7961C153.095 68.7131 154.399 65.8502 156.477 63.7492C158.555 61.6483 161.264 60.4549 164.091 60.395H423.963C425.296 60.3753 426.617 60.6644 427.841 61.2433C429.064 61.8222 430.163 62.6779 431.063 63.7544C431.964 64.8308 432.647 66.1036 433.068 67.4895C433.488 68.8753 433.637 70.3429 433.504 71.7961L417.897 275.387C417.611 278.471 416.305 281.332 414.225 283.432C412.146 285.533 409.436 286.727 406.609 286.789V286.789Z" fill="white"/>
<path d="M147.079 282.386C146.26 282.402 145.447 282.227 144.694 281.873C143.942 281.519 143.266 280.994 142.713 280.332C142.159 279.67 141.74 278.887 141.483 278.035C141.227 277.182 141.138 276.28 141.224 275.387L156.83 71.796C157.002 69.9017 157.803 68.1425 159.081 66.8523C160.358 65.5621 162.023 64.8307 163.76 64.7969H423.622C424.441 64.7812 425.254 64.9563 426.007 65.3103C426.76 65.6644 427.436 66.1895 427.991 66.851C428.545 67.5125 428.965 68.2952 429.223 69.1476C429.481 70 429.571 70.9027 429.487 71.796L413.88 275.387C413.708 277.282 412.907 279.041 411.63 280.331C410.353 281.621 408.687 282.353 406.95 282.386H147.079Z" fill="white"/>
<path d="M171.342 78.9823H176.755L176.634 80.534H174.827L174.455 85.2771H172.677L173.049 80.534H171.231L171.342 78.9823Z" fill="#3F79FF"/>
<path d="M180.145 84.2427H178.137L177.775 85.2771H175.958L178.609 78.9823H180.547L182.224 85.2771H180.356L180.145 84.2427ZM179.874 82.878L179.412 80.611L178.619 82.878H179.874Z" fill="#3F79FF"/>
<path d="M182.623 83.1972L184.32 83.0762C184.321 83.3196 184.38 83.5584 184.491 83.7695C184.577 83.8972 184.692 83.9992 184.823 84.0665C184.955 84.1337 185.099 84.164 185.244 84.1546C185.46 84.1698 185.674 84.0995 185.847 83.9565C185.914 83.9042 185.97 83.837 186.011 83.7592C186.053 83.6815 186.079 83.5949 186.088 83.5054C186.097 83.4231 186.087 83.3397 186.059 83.2628C186.031 83.1859 185.985 83.1179 185.927 83.0652C185.663 82.8689 185.36 82.7444 185.043 82.702C184.458 82.5945 183.906 82.3298 183.436 81.9316C183.286 81.7772 183.17 81.5863 183.099 81.3743C183.027 81.1622 183.002 80.9348 183.025 80.7101C183.058 80.3786 183.173 80.0631 183.356 79.7967C183.57 79.4922 183.854 79.2565 184.18 79.1144C184.64 78.9328 185.127 78.8506 185.616 78.8723C186.195 78.8224 186.773 78.9808 187.263 79.3235C187.453 79.4971 187.603 79.7166 187.703 79.9649C187.802 80.2132 187.847 80.4834 187.835 80.7541L186.158 80.8532C186.155 80.6232 186.072 80.4031 185.927 80.2369C185.76 80.0984 185.553 80.0319 185.345 80.0498C185.177 80.0368 185.01 80.0873 184.873 80.1929C184.82 80.231 184.776 80.2813 184.743 80.3403C184.71 80.3992 184.689 80.4653 184.682 80.534C184.68 80.5861 184.689 80.6379 184.708 80.6856C184.727 80.7333 184.756 80.7756 184.792 80.8091C184.966 80.9387 185.166 81.0182 185.375 81.0402C185.936 81.1548 186.482 81.3432 187.002 81.6015C187.286 81.7542 187.524 81.9953 187.685 82.2948C187.817 82.5839 187.869 82.909 187.835 83.2302C187.799 83.6293 187.663 84.0099 187.444 84.3307C187.209 84.6743 186.893 84.9408 186.53 85.1011C186.082 85.2908 185.604 85.3806 185.124 85.3652C184.768 85.4153 184.407 85.3866 184.062 85.2807C183.717 85.1749 183.395 84.994 183.115 84.7489C182.774 84.3206 182.598 83.7647 182.623 83.1972Z" fill="#3F79FF"/>
<path d="M189.065 78.9823H190.813L190.632 81.3594L192.641 78.9823H195.001L192.821 81.3594L194.71 85.2771H192.53L191.526 82.691L190.522 83.7915L190.401 85.3211H188.624L189.065 78.9823Z" fill="#3F79FF"/>
<path d="M198.414 78.9823H201.366C201.619 78.9571 201.874 78.9879 202.115 79.073C202.357 79.1581 202.58 79.2957 202.772 79.4775C202.928 79.6706 203.042 79.8993 203.106 80.1468C203.17 80.3943 203.183 80.6544 203.144 80.9082C203.118 81.4781 202.891 82.0147 202.511 82.4048C202.044 82.7968 201.462 82.9885 200.874 82.9441H199.87L199.689 85.2771H197.902L198.414 78.9823ZM199.991 81.6675H200.432C200.69 81.6917 200.948 81.622 201.166 81.4694C201.237 81.4087 201.296 81.3324 201.34 81.2452C201.383 81.1581 201.409 81.062 201.417 80.9632C201.429 80.7845 201.379 80.6074 201.276 80.4679C201.185 80.3845 201.079 80.3228 200.965 80.2868C200.851 80.2508 200.731 80.2413 200.613 80.2589H200.101L199.991 81.6675Z" fill="#3F79FF"/>
<path d="M206.685 84.2427H204.677L204.315 85.2771H202.497L205.149 78.9823H207.087L208.764 85.2771H206.886L206.685 84.2427ZM206.414 82.878L205.952 80.611L205.159 82.878H206.414Z" fill="#3F79FF"/>
<path d="M209.804 78.9823H211.461L213.359 82.4599L213.63 78.9823H215.308L214.826 85.2771H213.148L211.26 81.8216L210.989 85.2771H209.322L209.804 78.9823Z" fill="#3F79FF"/>
<path d="M216.481 78.9823H221.241L221.141 80.3249H218.128L218.048 81.3263H220.819L220.719 82.6139H217.957L217.857 83.8575H220.94L220.83 85.2771H215.979L216.481 78.9823Z" fill="#3F79FF"/>
<path d="M222.289 78.9823H224.067L223.705 83.7254H226.477L226.357 85.2771H221.807L222.289 78.9823Z" fill="#3F79FF"/>
<path opacity="0.1" d="M254.086 88.0944H239.022C238.624 88.1016 238.23 88.0161 237.865 87.8437C237.5 87.6712 237.173 87.4157 236.905 87.0942C236.638 86.7726 236.435 86.3922 236.312 85.9784C236.188 85.5646 236.147 85.1267 236.189 84.6939L236.631 78.8282C236.719 77.9112 237.109 77.0608 237.729 76.4367C238.348 75.8127 239.154 75.4578 239.996 75.4387H255.06C255.456 75.4334 255.848 75.5198 256.212 75.6922C256.575 75.8646 256.901 76.1191 257.168 76.439C257.436 76.759 257.638 77.1372 257.763 77.5489C257.888 77.9606 257.932 78.3966 257.892 78.8282L257.4 84.7379C257.311 85.6416 256.926 86.4793 256.317 87.0963C255.708 87.7132 254.915 88.0678 254.086 88.0944V88.0944Z" fill="#3F79FF"/>
<path opacity="0.1" d="M412.136 85.5491C414.222 83.3574 414.422 79.8772 412.583 77.776C410.744 75.6747 407.562 75.748 405.477 77.9398C403.391 80.1315 403.191 83.6116 405.03 85.7129C406.869 87.8141 410.05 87.7408 412.136 85.5491Z" fill="#3F79FF"/>
<path opacity="0.1" d="M392.047 85.5521C394.133 83.3604 394.333 79.8803 392.494 77.779C390.655 75.6778 387.474 75.7511 385.388 77.9428C383.302 80.1345 383.102 83.6147 384.941 85.7159C386.78 87.8172 389.962 87.7438 392.047 85.5521Z" fill="#3F79FF"/>
<path opacity="0.1" d="M371.959 85.5553C374.045 83.3636 374.245 79.8835 372.406 77.7822C370.567 75.6809 367.385 75.7543 365.3 77.946C363.214 80.1377 363.014 83.6178 364.853 85.7191C366.692 87.8203 369.873 87.747 371.959 85.5553Z" fill="#3F79FF"/>
<path opacity="0.1" d="M239.494 104.723H176.083C172.287 104.723 168.942 107.859 168.651 111.7L155.595 282.387H232.806L245.861 111.7C246.143 107.848 243.28 104.723 239.494 104.723Z" fill="#3F79FF"/>
<path d="M237.519 108.949H177.392C176.028 108.983 174.722 109.561 173.719 110.573C172.715 111.586 172.082 112.965 171.939 114.451L168.926 153.959C168.861 154.661 168.932 155.37 169.135 156.04C169.337 156.71 169.668 157.325 170.103 157.845C170.539 158.364 171.07 158.777 171.661 159.056C172.253 159.335 172.892 159.473 173.536 159.461H233.653C235.019 159.434 236.328 158.859 237.333 157.845C238.338 156.831 238.969 155.448 239.106 153.959L242.119 114.451C242.181 113.751 242.108 113.044 241.904 112.377C241.701 111.709 241.372 111.096 240.938 110.577C240.504 110.058 239.975 109.645 239.387 109.365C238.798 109.084 238.161 108.942 237.519 108.949V108.949Z" fill="white"/>
<path d="M233.198 165.437H173.071C171.706 165.469 170.399 166.046 169.395 167.059C168.391 168.072 167.759 169.452 167.617 170.94L164.604 210.447C164.539 211.149 164.61 211.859 164.813 212.528C165.016 213.198 165.346 213.813 165.781 214.333C166.217 214.853 166.748 215.266 167.34 215.544C167.931 215.823 168.57 215.961 169.214 215.95H229.331C230.697 215.922 232.006 215.347 233.011 214.333C234.016 213.319 234.647 211.937 234.785 210.447L237.797 170.94C237.859 170.239 237.786 169.532 237.583 168.865C237.379 168.197 237.05 167.584 236.616 167.066C236.182 166.547 235.654 166.133 235.065 165.853C234.476 165.572 233.84 165.431 233.198 165.437V165.437Z" fill="white"/>
<path d="M228.871 221.936H168.724C167.359 221.966 166.051 222.542 165.046 223.556C164.042 224.569 163.41 225.95 163.271 227.439L160.258 266.947C160.193 267.649 160.264 268.358 160.467 269.028C160.669 269.697 161 270.312 161.435 270.832C161.871 271.352 162.402 271.765 162.993 272.044C163.585 272.322 164.224 272.461 164.868 272.449H224.965C226.33 272.419 227.638 271.843 228.643 270.83C229.647 269.816 230.279 268.435 230.418 266.947L233.431 227.439C233.496 226.742 233.426 226.037 233.226 225.371C233.026 224.705 232.701 224.093 232.27 223.574C231.84 223.055 231.316 222.641 230.73 222.359C230.144 222.077 229.511 221.933 228.871 221.936V221.936Z" fill="white"/>
<path opacity="0.5" d="M188.626 131.135H177.99C177.695 131.14 177.403 131.076 177.132 130.948C176.862 130.82 176.619 130.631 176.42 130.393C176.221 130.155 176.07 129.874 175.977 129.567C175.884 129.261 175.851 128.936 175.881 128.615L176.775 116.96C176.841 116.279 177.131 115.647 177.591 115.183C178.052 114.719 178.65 114.455 179.276 114.44H189.901C190.196 114.436 190.488 114.499 190.759 114.627C191.029 114.755 191.272 114.944 191.471 115.182C191.671 115.42 191.822 115.702 191.914 116.008C192.007 116.315 192.04 116.639 192.01 116.96L191.116 128.615C191.053 129.295 190.765 129.927 190.306 130.391C189.847 130.855 189.25 131.12 188.626 131.135V131.135Z" fill="#3F79FF"/>
<path opacity="0.5" d="M234.055 140.214H176.087C175.948 140.214 175.811 140.183 175.683 140.122C175.556 140.062 175.441 139.973 175.347 139.861C175.253 139.749 175.18 139.617 175.135 139.473C175.089 139.33 175.072 139.177 175.083 139.025C175.112 138.703 175.247 138.403 175.464 138.182C175.68 137.962 175.962 137.835 176.258 137.826H234.226C234.366 137.825 234.504 137.856 234.632 137.918C234.76 137.979 234.875 138.069 234.97 138.182C235.064 138.295 235.136 138.428 235.181 138.574C235.226 138.719 235.243 138.873 235.23 139.025C235.199 139.346 235.062 139.643 234.846 139.861C234.63 140.08 234.349 140.205 234.055 140.214Z" fill="#3F79FF"/>
<path opacity="0.2" d="M226.373 121.538H199.709C199.486 121.541 199.266 121.493 199.062 121.396C198.859 121.299 198.676 121.156 198.526 120.976C198.376 120.796 198.263 120.584 198.193 120.353C198.123 120.121 198.099 119.877 198.122 119.635V119.635C198.171 119.122 198.388 118.648 198.734 118.299C199.08 117.95 199.53 117.752 200 117.742H226.664C226.885 117.739 227.104 117.787 227.307 117.884C227.51 117.98 227.693 118.122 227.842 118.301C227.992 118.479 228.106 118.69 228.176 118.92C228.246 119.15 228.272 119.393 228.251 119.635V119.635C228.204 120.149 227.987 120.626 227.641 120.977C227.295 121.328 226.844 121.527 226.373 121.538V121.538Z" fill="#263238"/>
<path opacity="0.2" d="M215.353 127.833H199.234C199.013 127.836 198.794 127.787 198.591 127.691C198.388 127.595 198.205 127.453 198.056 127.274C197.906 127.096 197.792 126.885 197.722 126.655C197.652 126.425 197.626 126.182 197.647 125.94V125.94C197.694 125.428 197.909 124.952 198.253 124.602C198.597 124.251 199.046 124.05 199.515 124.036H215.644C215.866 124.034 216.087 124.082 216.29 124.179C216.494 124.276 216.677 124.419 216.827 124.599C216.977 124.779 217.09 124.991 217.16 125.222C217.229 125.453 217.254 125.698 217.231 125.94C217.182 126.452 216.965 126.927 216.619 127.276C216.273 127.624 215.823 127.823 215.353 127.833V127.833Z" fill="#263238"/>
<path opacity="0.5" d="M184.298 187.634H173.662C173.368 187.639 173.075 187.575 172.805 187.447C172.534 187.319 172.291 187.13 172.092 186.892C171.893 186.654 171.742 186.373 171.649 186.066C171.556 185.76 171.524 185.435 171.553 185.114L172.447 173.46C172.511 172.777 172.801 172.144 173.261 171.68C173.722 171.215 174.322 170.952 174.948 170.939H185.573C185.868 170.935 186.16 170.998 186.431 171.126C186.702 171.254 186.945 171.443 187.144 171.681C187.343 171.919 187.494 172.201 187.587 172.507C187.68 172.814 187.712 173.138 187.682 173.46L186.799 185.114C186.735 185.796 186.445 186.429 185.985 186.894C185.524 187.358 184.924 187.621 184.298 187.634V187.634Z" fill="#3F79FF"/>
<path opacity="0.5" d="M229.723 196.713H171.735C171.595 196.714 171.457 196.682 171.329 196.621C171.201 196.56 171.086 196.47 170.991 196.357C170.897 196.244 170.825 196.11 170.78 195.965C170.735 195.82 170.718 195.666 170.731 195.514C170.762 195.193 170.899 194.896 171.115 194.678C171.331 194.459 171.612 194.334 171.906 194.325H229.874C230.013 194.325 230.15 194.356 230.278 194.416C230.405 194.477 230.52 194.566 230.614 194.678C230.708 194.79 230.781 194.922 230.826 195.065C230.872 195.209 230.889 195.362 230.878 195.514C230.849 195.832 230.717 196.129 230.505 196.349C230.293 196.57 230.015 196.699 229.723 196.713V196.713Z" fill="#3F79FF"/>
<path opacity="0.2" d="M222.051 178.038H195.377C195.155 178.039 194.936 177.989 194.734 177.892C194.531 177.794 194.35 177.651 194.201 177.471C194.052 177.292 193.94 177.08 193.871 176.849C193.801 176.619 193.777 176.375 193.8 176.134V176.134C193.849 175.624 194.065 175.15 194.409 174.802C194.752 174.454 195.2 174.254 195.668 174.241H222.342C222.563 174.238 222.783 174.287 222.986 174.383C223.189 174.479 223.371 174.621 223.52 174.8C223.67 174.978 223.784 175.189 223.854 175.419C223.925 175.649 223.95 175.893 223.929 176.134V176.134C223.882 176.648 223.666 177.126 223.319 177.476C222.973 177.827 222.522 178.027 222.051 178.038V178.038Z" fill="#263238"/>
<path opacity="0.2" d="M211.02 184.333H194.891C194.67 184.335 194.451 184.287 194.249 184.191C194.046 184.094 193.865 183.952 193.716 183.773C193.567 183.595 193.454 183.383 193.385 183.154C193.316 182.924 193.292 182.68 193.314 182.44V182.44C193.361 181.928 193.576 181.451 193.92 181.101C194.264 180.75 194.713 180.549 195.182 180.536H211.311C211.534 180.533 211.754 180.582 211.958 180.679C212.161 180.776 212.344 180.919 212.494 181.098C212.644 181.278 212.757 181.491 212.827 181.722C212.897 181.953 212.921 182.198 212.898 182.44C212.849 182.952 212.632 183.427 212.286 183.775C211.94 184.124 211.49 184.322 211.02 184.333Z" fill="#263238"/>
<path d="M206.882 202.216H227.852C228.181 202.209 228.507 202.279 228.809 202.421C229.111 202.563 229.382 202.773 229.604 203.039C229.826 203.304 229.994 203.618 230.097 203.96C230.201 204.302 230.236 204.664 230.202 205.022L229.891 209.127C229.822 209.888 229.501 210.595 228.988 211.114C228.475 211.634 227.807 211.929 227.109 211.944H206.099C205.77 211.949 205.444 211.878 205.142 211.735C204.839 211.591 204.569 211.38 204.347 211.114C204.125 210.848 203.956 210.533 203.853 210.19C203.75 209.848 203.715 209.485 203.749 209.127L204.06 205.022C204.132 204.255 204.46 203.545 204.981 203.027C205.502 202.509 206.179 202.22 206.882 202.216V202.216Z" fill="#3F79FF"/>
<path d="M208.475 208.356H207.25L207.029 208.984H205.935L207.541 205.165H208.716L209.721 208.984H208.596L208.475 208.356ZM208.315 207.531L208.044 206.155L207.551 207.531H208.315Z" fill="white"/>
<path d="M212.432 207.421L213.356 207.74C213.277 208.004 213.154 208.25 212.994 208.466C212.846 208.656 212.661 208.806 212.452 208.907C212.202 209.011 211.936 209.059 211.669 209.05C211.356 209.065 211.044 209.005 210.755 208.873C210.506 208.735 210.305 208.51 210.182 208.235C210.021 207.873 209.962 207.467 210.012 207.069C210.029 206.52 210.233 205.998 210.584 205.605C210.955 205.25 211.438 205.069 211.93 205.099C212.284 205.077 212.635 205.177 212.934 205.385C213.191 205.612 213.365 205.932 213.426 206.287L212.422 206.518C212.408 206.43 212.381 206.344 212.342 206.265C212.289 206.177 212.216 206.105 212.131 206.056C212.045 206.003 211.948 205.976 211.849 205.979C211.734 205.976 211.619 206.005 211.515 206.063C211.412 206.12 211.323 206.205 211.257 206.309C211.126 206.532 211.056 206.792 211.056 207.058C211 207.352 211.035 207.658 211.157 207.927C211.212 208.008 211.285 208.073 211.369 208.116C211.454 208.158 211.546 208.176 211.639 208.169C211.727 208.174 211.815 208.158 211.898 208.124C211.981 208.09 212.057 208.038 212.121 207.971C212.264 207.818 212.37 207.629 212.432 207.421V207.421Z" fill="white"/>
<path d="M216.237 207.421L217.161 207.74C217.081 208.004 216.959 208.25 216.799 208.466C216.651 208.656 216.465 208.806 216.257 208.907C216.007 209.011 215.741 209.059 215.473 209.05C215.161 209.065 214.849 209.005 214.559 208.873C214.31 208.735 214.109 208.51 213.987 208.235C213.826 207.873 213.767 207.467 213.816 207.069C213.834 206.52 214.038 205.998 214.389 205.605C214.76 205.25 215.243 205.069 215.735 205.099C216.088 205.078 216.439 205.178 216.739 205.385C216.992 205.615 217.166 205.934 217.231 206.287L216.227 206.518C216.212 206.43 216.185 206.344 216.146 206.265C216.091 206.179 216.019 206.107 215.935 206.056C215.847 206.001 215.746 205.974 215.644 205.979C215.53 205.977 215.417 206.006 215.315 206.064C215.213 206.122 215.126 206.206 215.062 206.309C214.931 206.533 214.858 206.792 214.851 207.058C214.801 207.353 214.84 207.658 214.961 207.927C215.016 208.009 215.089 208.075 215.173 208.117C215.258 208.159 215.351 208.177 215.443 208.169C215.53 208.177 215.618 208.165 215.701 208.135C215.783 208.104 215.86 208.056 215.925 207.993C216.071 207.834 216.178 207.637 216.237 207.421V207.421Z" fill="white"/>
<path d="M217.928 205.165H220.82L220.75 205.979H218.932L218.882 206.585H220.559L220.499 207.366H218.822L218.761 208.125H220.629L220.559 208.984H217.616L217.928 205.165Z" fill="white"/>
<path d="M221.396 205.165H223.194C223.348 205.149 223.503 205.168 223.65 205.221C223.797 205.274 223.932 205.36 224.048 205.473C224.138 205.593 224.205 205.732 224.243 205.882C224.281 206.032 224.29 206.189 224.269 206.342C224.261 206.514 224.223 206.682 224.156 206.837C224.089 206.992 223.994 207.131 223.877 207.245C223.589 207.483 223.232 207.596 222.873 207.564H222.28L222.17 208.984H221.085L221.396 205.165ZM222.401 206.794H222.672C222.827 206.806 222.982 206.763 223.114 206.673C223.155 206.638 223.189 206.595 223.215 206.546C223.241 206.497 223.257 206.442 223.264 206.386C223.271 206.33 223.267 206.273 223.253 206.218C223.239 206.163 223.216 206.112 223.184 206.067C223.129 206.016 223.065 205.978 222.996 205.955C222.927 205.932 222.854 205.926 222.782 205.935H222.471L222.401 206.794Z" fill="white"/>
<path d="M224.684 205.165H227.979L227.908 206.111H226.814L226.583 208.984H225.498L225.729 206.111H224.634L224.684 205.165Z" fill="white"/>
<path opacity="0.5" d="M179.96 244.133H169.335C169.039 244.137 168.747 244.072 168.476 243.942C168.206 243.813 167.963 243.623 167.764 243.384C167.565 243.145 167.414 242.863 167.321 242.556C167.228 242.249 167.196 241.924 167.225 241.602L168.119 230.003C168.183 229.323 168.471 228.691 168.93 228.227C169.388 227.763 169.986 227.498 170.61 227.483H181.245C181.54 227.478 181.832 227.542 182.103 227.67C182.374 227.797 182.617 227.987 182.816 228.225C183.015 228.463 183.166 228.744 183.259 229.051C183.352 229.357 183.384 229.682 183.354 230.003L182.461 241.646C182.386 242.321 182.092 242.944 181.633 243.4C181.174 243.857 180.58 244.117 179.96 244.133V244.133Z" fill="#3F79FF"/>
<path opacity="0.25" d="M225.39 253.213H167.432C167.293 253.213 167.154 253.182 167.026 253.12C166.898 253.059 166.783 252.969 166.688 252.856C166.594 252.743 166.522 252.61 166.477 252.465C166.432 252.319 166.416 252.166 166.428 252.013C166.46 251.693 166.596 251.396 166.812 251.177C167.028 250.959 167.309 250.833 167.603 250.824H225.571C225.71 250.824 225.848 250.855 225.975 250.916C226.102 250.977 226.217 251.066 226.311 251.177C226.406 251.289 226.478 251.421 226.523 251.565C226.569 251.709 226.587 251.861 226.575 252.013C226.546 252.337 226.409 252.638 226.191 252.859C225.972 253.08 225.688 253.206 225.39 253.213Z" fill="#3F79FF"/>
<path opacity="0.25" d="M214.172 253.213H167.432C167.293 253.213 167.154 253.182 167.026 253.12C166.898 253.059 166.783 252.969 166.688 252.856C166.594 252.743 166.522 252.61 166.477 252.465C166.432 252.319 166.416 252.166 166.428 252.013C166.46 251.693 166.596 251.396 166.812 251.177C167.028 250.959 167.309 250.833 167.603 250.824H214.343C214.482 250.824 214.62 250.855 214.747 250.916C214.874 250.977 214.989 251.066 215.083 251.177C215.178 251.289 215.25 251.421 215.295 251.565C215.341 251.709 215.359 251.861 215.347 252.013C215.318 252.335 215.183 252.635 214.966 252.856C214.75 253.077 214.468 253.203 214.172 253.213V253.213Z" fill="#3F79FF"/>
<path opacity="0.2" d="M217.717 234.526H191.043C190.822 234.529 190.603 234.481 190.4 234.384C190.198 234.288 190.016 234.146 189.867 233.967C189.718 233.788 189.606 233.577 189.537 233.347C189.467 233.117 189.443 232.874 189.466 232.633V232.633C189.513 232.122 189.728 231.647 190.072 231.299C190.417 230.95 190.865 230.751 191.334 230.74H218.008C218.23 230.736 218.45 230.783 218.654 230.879C218.857 230.975 219.04 231.117 219.19 231.295C219.34 231.474 219.454 231.686 219.524 231.917C219.593 232.147 219.618 232.392 219.595 232.633C219.548 233.146 219.331 233.622 218.985 233.971C218.639 234.32 218.187 234.518 217.717 234.526V234.526Z" fill="#263238"/>
<path opacity="0.2" d="M206.699 240.832H190.57C190.348 240.833 190.129 240.783 189.927 240.686C189.724 240.588 189.542 240.445 189.394 240.265C189.245 240.086 189.132 239.874 189.063 239.643C188.994 239.413 188.97 239.169 188.993 238.928V238.928C189.037 238.416 189.252 237.94 189.597 237.591C189.942 237.242 190.392 237.044 190.861 237.035H206.99C207.211 237.034 207.429 237.084 207.631 237.181C207.834 237.278 208.015 237.42 208.165 237.598C208.314 237.776 208.428 237.986 208.499 238.215C208.57 238.444 208.596 238.687 208.577 238.928C208.53 239.442 208.313 239.92 207.967 240.271C207.621 240.621 207.17 240.821 206.699 240.832Z" fill="#263238"/>
<path opacity="0.1" d="M322.373 104.723H258.911C255.125 104.723 251.781 107.859 251.489 111.7L238.434 282.387H315.634L328.69 111.7C328.981 107.848 326.119 104.723 322.373 104.723Z" fill="#3F79FF"/>
<path d="M320.37 108.949H260.243C258.878 108.981 257.571 109.558 256.567 110.571C255.563 111.584 254.931 112.964 254.79 114.451L251.777 153.959C251.711 154.66 251.782 155.368 251.985 156.037C252.187 156.706 252.516 157.321 252.951 157.84C253.385 158.36 253.915 158.773 254.505 159.052C255.096 159.332 255.733 159.471 256.376 159.461H316.504C317.869 159.432 319.177 158.856 320.181 157.842C321.186 156.829 321.817 155.447 321.957 153.959L324.97 114.451C325.033 113.75 324.961 113.043 324.758 112.375C324.556 111.706 324.226 111.093 323.792 110.573C323.358 110.054 322.829 109.641 322.239 109.361C321.65 109.081 321.013 108.941 320.37 108.949V108.949Z" fill="white"/>
<path d="M316.031 165.437H255.914C254.549 165.467 253.241 166.043 252.236 167.056C251.232 168.07 250.6 169.451 250.461 170.94L247.448 210.447C247.384 211.149 247.456 211.857 247.66 212.526C247.863 213.195 248.193 213.81 248.629 214.329C249.064 214.849 249.594 215.261 250.185 215.541C250.776 215.82 251.414 215.959 252.057 215.95H312.185C313.549 215.918 314.856 215.341 315.86 214.328C316.864 213.315 317.496 211.935 317.638 210.447L320.651 170.94C320.715 170.237 320.642 169.527 320.438 168.858C320.234 168.188 319.903 167.573 319.467 167.053C319.03 166.534 318.499 166.121 317.907 165.843C317.315 165.564 316.675 165.426 316.031 165.437V165.437Z" fill="white"/>
<path d="M311.697 221.936H251.58C250.214 221.964 248.905 222.539 247.9 223.553C246.895 224.567 246.264 225.949 246.127 227.439L243.114 266.947C243.05 267.648 243.122 268.357 243.326 269.026C243.529 269.695 243.859 270.309 244.295 270.828C244.73 271.348 245.26 271.761 245.851 272.04C246.442 272.319 247.08 272.459 247.723 272.449H307.851C309.215 272.417 310.522 271.84 311.526 270.827C312.53 269.814 313.162 268.434 313.304 266.947L316.317 227.439C316.382 226.736 316.311 226.026 316.107 225.355C315.904 224.685 315.573 224.069 315.136 223.549C314.7 223.029 314.168 222.616 313.575 222.338C312.982 222.06 312.342 221.923 311.697 221.936V221.936Z" fill="white"/>
<path opacity="0.5" d="M271.466 131.135H260.841C260.546 131.139 260.254 131.076 259.983 130.948C259.713 130.82 259.47 130.631 259.271 130.393C259.071 130.155 258.92 129.873 258.828 129.567C258.735 129.26 258.702 128.936 258.732 128.615L259.626 116.96C259.69 116.279 259.98 115.647 260.441 115.185C260.902 114.722 261.501 114.461 262.126 114.451H272.762C273.057 114.446 273.349 114.51 273.62 114.638C273.89 114.766 274.133 114.955 274.332 115.193C274.531 115.431 274.682 115.712 274.775 116.019C274.868 116.325 274.901 116.65 274.871 116.971L273.977 128.626C273.909 129.307 273.616 129.938 273.154 130.399C272.692 130.861 272.092 131.123 271.466 131.135V131.135Z" fill="#3F79FF"/>
<path opacity="0.25" d="M316.89 140.214H258.932C258.793 140.214 258.655 140.183 258.528 140.122C258.4 140.062 258.286 139.973 258.191 139.861C258.097 139.749 258.025 139.617 257.979 139.473C257.934 139.33 257.916 139.177 257.927 139.025C257.954 138.702 258.089 138.401 258.306 138.18C258.523 137.958 258.806 137.832 259.102 137.826H317.07C317.21 137.825 317.349 137.856 317.477 137.918C317.605 137.979 317.72 138.069 317.814 138.182C317.909 138.295 317.981 138.428 318.026 138.574C318.071 138.719 318.087 138.873 318.075 139.025C318.043 139.347 317.905 139.646 317.687 139.865C317.469 140.083 317.185 140.208 316.89 140.214Z" fill="#3F79FF"/>
<path opacity="0.25" d="M283.798 140.214H258.932C258.793 140.214 258.655 140.183 258.528 140.122C258.4 140.062 258.286 139.973 258.191 139.861C258.097 139.749 258.025 139.617 257.979 139.473C257.934 139.33 257.916 139.177 257.927 139.025C257.954 138.702 258.089 138.401 258.306 138.18C258.523 137.958 258.806 137.832 259.102 137.826H283.979C284.119 137.825 284.257 137.856 284.385 137.918C284.513 137.979 284.628 138.069 284.723 138.182C284.817 138.295 284.889 138.428 284.934 138.574C284.979 138.719 284.996 138.873 284.983 139.025C284.951 139.347 284.813 139.646 284.595 139.865C284.377 140.083 284.094 140.208 283.798 140.214Z" fill="#3F79FF"/>
<path opacity="0.2" d="M309.227 121.538H282.553C282.331 121.541 282.111 121.493 281.907 121.396C281.703 121.299 281.52 121.156 281.37 120.976C281.221 120.796 281.107 120.584 281.038 120.353C280.968 120.121 280.944 119.877 280.966 119.635V119.635C281.015 119.122 281.233 118.648 281.579 118.299C281.924 117.951 282.375 117.752 282.844 117.742H309.518C309.739 117.739 309.958 117.787 310.161 117.884C310.363 117.98 310.545 118.122 310.694 118.301C310.843 118.48 310.955 118.691 311.025 118.921C311.094 119.151 311.118 119.394 311.095 119.635V119.635C311.049 120.147 310.833 120.623 310.489 120.973C310.146 121.324 309.697 121.525 309.227 121.538V121.538Z" fill="#263238"/>
<path opacity="0.2" d="M298.189 127.833H282.06C281.839 127.836 281.619 127.788 281.416 127.691C281.213 127.595 281.031 127.453 280.881 127.275C280.732 127.096 280.618 126.885 280.548 126.655C280.477 126.425 280.452 126.182 280.473 125.94V125.94C280.52 125.426 280.736 124.949 281.082 124.598C281.428 124.247 281.88 124.048 282.351 124.037H298.48C298.701 124.035 298.92 124.085 299.123 124.183C299.326 124.28 299.507 124.424 299.656 124.603C299.805 124.783 299.917 124.995 299.986 125.225C300.055 125.456 300.079 125.699 300.057 125.94V125.94C300.008 126.451 299.792 126.924 299.448 127.272C299.104 127.621 298.657 127.82 298.189 127.833Z" fill="#263238"/>
<path opacity="0.5" d="M267.142 187.634H256.507C256.212 187.639 255.92 187.575 255.649 187.447C255.379 187.32 255.136 187.13 254.937 186.892C254.737 186.654 254.586 186.373 254.494 186.066C254.401 185.76 254.368 185.435 254.398 185.114L255.292 173.46C255.353 172.778 255.641 172.145 256.1 171.681C256.559 171.216 257.158 170.952 257.782 170.94H268.408C268.703 170.933 268.996 170.995 269.267 171.123C269.539 171.25 269.782 171.439 269.982 171.677C270.181 171.916 270.332 172.198 270.425 172.505C270.517 172.813 270.548 173.138 270.517 173.46L269.633 185.114C269.568 185.794 269.279 186.424 268.821 186.888C268.362 187.351 267.766 187.616 267.142 187.634Z" fill="#3F79FF"/>
<path opacity="0.25" d="M312.556 196.713H254.598C254.459 196.714 254.32 196.682 254.192 196.621C254.064 196.56 253.949 196.47 253.854 196.357C253.76 196.244 253.688 196.11 253.643 195.965C253.598 195.82 253.582 195.666 253.594 195.514C253.626 195.191 253.764 194.893 253.982 194.674C254.2 194.455 254.484 194.331 254.779 194.325H312.737C312.876 194.325 313.014 194.356 313.141 194.416C313.268 194.477 313.383 194.566 313.477 194.678C313.572 194.79 313.644 194.922 313.689 195.065C313.735 195.209 313.753 195.362 313.741 195.514C313.712 195.838 313.575 196.139 313.357 196.36C313.138 196.581 312.854 196.707 312.556 196.713Z" fill="#3F79FF"/>
<path opacity="0.25" d="M257.692 196.713H254.598C254.459 196.714 254.32 196.682 254.192 196.621C254.064 196.56 253.949 196.47 253.854 196.357C253.76 196.244 253.688 196.11 253.643 195.965C253.598 195.82 253.582 195.666 253.594 195.514C253.626 195.191 253.764 194.893 253.982 194.674C254.2 194.455 254.484 194.331 254.779 194.325H257.872C258.011 194.325 258.149 194.356 258.276 194.416C258.404 194.477 258.518 194.566 258.613 194.678C258.707 194.79 258.779 194.922 258.825 195.065C258.87 195.209 258.888 195.362 258.877 195.514C258.847 195.838 258.71 196.139 258.492 196.36C258.274 196.581 257.989 196.707 257.692 196.713Z" fill="#3F79FF"/>
<path opacity="0.2" d="M304.898 178.038H278.194C277.972 178.041 277.752 177.992 277.548 177.895C277.344 177.798 277.161 177.655 277.011 177.475C276.862 177.296 276.748 177.083 276.678 176.852C276.609 176.621 276.584 176.376 276.607 176.134V176.134C276.656 175.622 276.874 175.147 277.22 174.798C277.565 174.45 278.015 174.252 278.485 174.241H305.159C305.38 174.238 305.599 174.287 305.802 174.383C306.004 174.479 306.186 174.622 306.335 174.8C306.484 174.979 306.596 175.19 306.665 175.42C306.735 175.65 306.759 175.893 306.736 176.134V176.134C306.69 176.641 306.479 177.112 306.142 177.462C305.804 177.812 305.362 178.016 304.898 178.038V178.038Z" fill="#263238"/>
<path opacity="0.2" d="M293.867 184.333H277.738C277.517 184.335 277.298 184.287 277.095 184.191C276.892 184.094 276.71 183.952 276.56 183.774C276.41 183.595 276.296 183.384 276.226 183.154C276.156 182.925 276.13 182.681 276.152 182.44V182.44C276.198 181.926 276.415 181.448 276.761 181.097C277.107 180.747 277.558 180.547 278.03 180.536H294.149C294.371 180.533 294.591 180.582 294.795 180.679C294.998 180.776 295.181 180.919 295.331 181.098C295.481 181.278 295.594 181.491 295.664 181.722C295.734 181.953 295.758 182.198 295.735 182.44C295.687 182.95 295.47 183.423 295.127 183.772C294.783 184.12 294.335 184.319 293.867 184.333V184.333Z" fill="#263238"/>
<path opacity="0.5" d="M262.804 244.133H252.179C251.884 244.137 251.591 244.072 251.321 243.942C251.05 243.813 250.807 243.623 250.608 243.384C250.409 243.146 250.258 242.863 250.166 242.556C250.073 242.249 250.04 241.924 250.07 241.602L250.964 229.959C251.025 229.278 251.313 228.645 251.772 228.18C252.231 227.716 252.83 227.452 253.454 227.439H264.13C264.425 227.434 264.717 227.498 264.988 227.626C265.258 227.753 265.501 227.943 265.7 228.181C265.9 228.419 266.051 228.7 266.143 229.007C266.236 229.313 266.269 229.638 266.239 229.959L265.345 241.602C265.283 242.294 264.989 242.936 264.519 243.404C264.05 243.871 263.439 244.131 262.804 244.133V244.133Z" fill="#3F79FF"/>
<path opacity="0.5" d="M308.229 253.213H250.271C250.131 253.213 249.992 253.182 249.864 253.12C249.736 253.059 249.621 252.969 249.526 252.856C249.432 252.743 249.36 252.61 249.315 252.465C249.27 252.319 249.254 252.166 249.266 252.013C249.298 251.691 249.436 251.392 249.654 251.174C249.872 250.955 250.156 250.831 250.451 250.824H308.409C308.548 250.824 308.686 250.855 308.813 250.916C308.94 250.977 309.055 251.066 309.149 251.177C309.244 251.289 309.316 251.421 309.361 251.565C309.407 251.709 309.425 251.861 309.414 252.013C309.384 252.337 309.247 252.638 309.029 252.859C308.811 253.08 308.526 253.206 308.229 253.213Z" fill="#3F79FF"/>
<path opacity="0.2" d="M300.565 234.526H273.891C273.67 234.53 273.45 234.483 273.246 234.388C273.042 234.292 272.859 234.15 272.709 233.971C272.559 233.792 272.445 233.58 272.376 233.35C272.306 233.119 272.282 232.875 272.304 232.633V232.633C272.351 232.12 272.568 231.644 272.915 231.295C273.261 230.946 273.712 230.749 274.182 230.74H300.847C301.068 230.736 301.288 230.783 301.492 230.879C301.696 230.975 301.879 231.117 302.029 231.295C302.179 231.474 302.292 231.686 302.362 231.917C302.432 232.147 302.456 232.392 302.433 232.633C302.387 233.144 302.171 233.619 301.827 233.968C301.483 234.317 301.034 234.515 300.565 234.526Z" fill="#263238"/>
<path opacity="0.2" d="M289.531 240.832H273.412C273.189 240.835 272.969 240.786 272.766 240.689C272.562 240.592 272.379 240.449 272.229 240.269C272.079 240.09 271.966 239.877 271.896 239.646C271.827 239.415 271.802 239.17 271.825 238.928V238.928C271.874 238.416 272.091 237.941 272.437 237.592C272.783 237.244 273.233 237.046 273.703 237.035H289.822C290.043 237.032 290.262 237.081 290.465 237.177C290.668 237.273 290.851 237.415 291 237.594C291.15 237.772 291.264 237.984 291.334 238.213C291.404 238.443 291.43 238.687 291.409 238.928V238.928C291.362 239.442 291.145 239.92 290.799 240.27C290.453 240.621 290.002 240.821 289.531 240.832Z" fill="#263238"/>
<path d="M285.352 258.715H306.311C306.639 258.71 306.965 258.781 307.266 258.924C307.567 259.066 307.838 259.277 308.06 259.542C308.281 259.807 308.45 260.12 308.553 260.461C308.657 260.802 308.694 261.163 308.661 261.521L308.35 265.626C308.277 266.384 307.954 267.088 307.442 267.604C306.93 268.121 306.264 268.415 305.568 268.432H284.608C284.28 268.437 283.955 268.366 283.654 268.224C283.352 268.081 283.082 267.871 282.86 267.606C282.638 267.341 282.47 267.027 282.366 266.686C282.263 266.345 282.226 265.984 282.258 265.626L282.57 261.521C282.643 260.763 282.966 260.06 283.478 259.543C283.99 259.027 284.656 258.732 285.352 258.715V258.715Z" fill="#3F79FF"/>
<path d="M286.996 264.856H285.771L285.55 265.483H284.445L286.062 261.664H287.227L288.231 265.483H287.106L286.996 264.856ZM286.835 264.03L286.554 262.655L286.062 264.03H286.835Z" fill="white"/>
<path d="M290.955 263.92L291.869 264.228C291.799 264.498 291.68 264.749 291.517 264.966C291.369 265.155 291.183 265.305 290.975 265.406C290.722 265.512 290.452 265.56 290.182 265.549C289.869 265.564 289.557 265.504 289.268 265.373C289.021 265.231 288.821 265.008 288.695 264.735C288.527 264.299 288.477 263.82 288.55 263.354C288.623 262.888 288.816 262.454 289.107 262.105C289.478 261.75 289.961 261.568 290.453 261.598C290.806 261.579 291.157 261.679 291.457 261.884C291.708 262.116 291.878 262.434 291.939 262.787L290.935 263.018C290.915 262.929 290.885 262.844 290.844 262.765C290.796 262.677 290.726 262.604 290.644 262.556C290.555 262.501 290.454 262.474 290.352 262.479C290.239 262.476 290.126 262.503 290.025 262.559C289.923 262.614 289.836 262.696 289.77 262.798C289.641 263.027 289.568 263.288 289.559 263.557C289.506 263.852 289.545 264.159 289.669 264.427C289.724 264.506 289.795 264.57 289.878 264.612C289.96 264.655 290.051 264.674 290.141 264.669C290.23 264.675 290.319 264.661 290.402 264.627C290.485 264.593 290.561 264.539 290.623 264.471C290.777 264.323 290.892 264.133 290.955 263.92V263.92Z" fill="white"/>
<path d="M294.747 263.92L295.671 264.228C295.598 264.499 295.475 264.75 295.31 264.966C295.161 265.155 294.976 265.305 294.767 265.406C294.517 265.51 294.251 265.559 293.984 265.549C293.671 265.565 293.359 265.504 293.07 265.373C292.823 265.231 292.623 265.008 292.498 264.735C292.337 264.373 292.277 263.967 292.327 263.568C292.344 263.019 292.548 262.497 292.899 262.104C293.272 261.752 293.754 261.57 294.245 261.598C294.599 261.576 294.95 261.676 295.249 261.884C295.506 262.111 295.681 262.431 295.741 262.787L294.737 263.018C294.725 262.929 294.697 262.843 294.657 262.765C294.608 262.676 294.539 262.604 294.456 262.556C294.367 262.502 294.266 262.475 294.165 262.479C294.05 262.476 293.936 262.504 293.833 262.56C293.73 262.615 293.641 262.697 293.572 262.798C293.446 263.028 293.377 263.289 293.371 263.557C293.318 263.852 293.357 264.158 293.482 264.426C293.536 264.506 293.608 264.57 293.69 264.612C293.772 264.655 293.863 264.674 293.954 264.669C294.042 264.675 294.131 264.661 294.214 264.627C294.297 264.593 294.373 264.539 294.436 264.47C294.588 264.325 294.696 264.134 294.747 263.92Z" fill="white"/>
<path d="M296.384 261.664H299.276L299.216 262.479H297.398V263.084H299.075L299.015 263.865H297.267L297.207 264.625H299.065L298.995 265.483H296.052L296.384 261.664Z" fill="white"/>
<path d="M299.915 261.664H301.703C301.856 261.65 302.01 261.668 302.157 261.719C302.303 261.77 302.439 261.853 302.557 261.961C302.647 262.081 302.714 262.22 302.752 262.37C302.79 262.52 302.799 262.677 302.778 262.831C302.763 263.178 302.626 263.505 302.396 263.744C302.106 263.976 301.75 264.089 301.392 264.063H300.809L300.699 265.483H299.614L299.915 261.664ZM300.869 263.293H301.131C301.289 263.307 301.448 263.264 301.582 263.172C301.627 263.136 301.663 263.09 301.689 263.036C301.716 262.983 301.73 262.924 301.733 262.864C301.739 262.81 301.734 262.755 301.719 262.704C301.703 262.653 301.677 262.606 301.643 262.567C301.588 262.515 301.524 262.477 301.454 262.454C301.385 262.432 301.313 262.425 301.241 262.435H300.93L300.869 263.293Z" fill="white"/>
<path d="M303.187 261.664H306.471L306.4 262.611H305.306L305.075 265.483H304L304.231 262.611H303.126L303.187 261.664Z" fill="white"/>
<path opacity="0.1" d="M405.177 104.723H341.765C339.963 104.693 338.214 105.386 336.845 106.671C335.476 107.956 334.583 109.744 334.334 111.7L321.278 282.387H398.478L411.534 111.7C411.835 107.848 408.973 104.723 405.177 104.723Z" fill="#3F79FF"/>
<path d="M403.205 108.949H343.087C341.722 108.978 340.414 109.554 339.41 110.568C338.405 111.582 337.774 112.963 337.634 114.451L334.621 153.959C334.556 154.661 334.627 155.37 334.83 156.04C335.033 156.71 335.363 157.325 335.798 157.845C336.234 158.364 336.765 158.777 337.357 159.056C337.948 159.335 338.587 159.473 339.231 159.461H399.348C400.714 159.434 402.023 158.859 403.028 157.845C404.033 156.831 404.664 155.448 404.801 153.959L407.814 114.451C407.878 113.749 407.806 113.041 407.602 112.372C407.399 111.703 407.069 111.089 406.633 110.569C406.198 110.05 405.668 109.637 405.077 109.358C404.486 109.078 403.848 108.939 403.205 108.949V108.949Z" fill="white"/>
<path d="M398.877 165.437H338.76C337.394 165.467 336.086 166.043 335.082 167.056C334.077 168.07 333.446 169.451 333.306 170.94L330.293 210.447C330.228 211.149 330.299 211.859 330.502 212.528C330.705 213.198 331.035 213.813 331.47 214.333C331.906 214.853 332.437 215.266 333.029 215.544C333.62 215.823 334.259 215.961 334.903 215.95H395.02C396.386 215.922 397.695 215.347 398.7 214.333C399.705 213.319 400.336 211.937 400.474 210.447L403.486 170.94C403.548 170.238 403.475 169.53 403.271 168.862C403.067 168.194 402.737 167.58 402.302 167.061C401.867 166.542 401.337 166.129 400.747 165.85C400.157 165.57 399.52 165.429 398.877 165.437V165.437Z" fill="white"/>
<path d="M394.543 221.936H334.426C333.061 221.969 331.754 222.545 330.75 223.558C329.746 224.572 329.114 225.951 328.972 227.439L325.959 266.947C325.894 267.649 325.965 268.358 326.168 269.028C326.371 269.697 326.701 270.312 327.136 270.832C327.572 271.352 328.103 271.765 328.695 272.044C329.286 272.322 329.925 272.461 330.569 272.449H390.666C392.032 272.422 393.341 271.847 394.346 270.833C395.351 269.819 395.982 268.436 396.119 266.947L399.132 227.439C399.196 226.739 399.124 226.033 398.922 225.365C398.719 224.698 398.391 224.084 397.958 223.565C397.525 223.046 396.997 222.633 396.409 222.352C395.82 222.072 395.184 221.93 394.543 221.936Z" fill="white"/>
<path opacity="0.5" d="M354.306 131.135H343.68C343.385 131.141 343.092 131.079 342.821 130.952C342.549 130.824 342.306 130.635 342.106 130.397C341.907 130.158 341.756 129.876 341.663 129.569C341.571 129.262 341.54 128.936 341.571 128.615L342.455 116.96C342.521 116.279 342.811 115.647 343.271 115.183C343.732 114.719 344.33 114.455 344.956 114.44H355.581C355.876 114.436 356.168 114.499 356.439 114.627C356.709 114.755 356.952 114.944 357.151 115.182C357.351 115.42 357.502 115.702 357.594 116.008C357.687 116.315 357.72 116.639 357.69 116.96L356.796 128.615C356.735 129.296 356.447 129.929 355.988 130.394C355.529 130.858 354.93 131.122 354.306 131.135V131.135Z" fill="#3F79FF"/>
<path opacity="0.5" d="M399.705 140.214H341.757C341.618 140.214 341.481 140.183 341.353 140.122C341.226 140.062 341.112 139.973 341.017 139.861C340.923 139.749 340.851 139.617 340.805 139.473C340.76 139.33 340.742 139.177 340.753 139.025C340.782 138.701 340.919 138.4 341.138 138.179C341.356 137.958 341.641 137.832 341.938 137.826H399.906C400.046 137.825 400.184 137.856 400.312 137.918C400.441 137.979 400.556 138.069 400.65 138.182C400.745 138.295 400.817 138.428 400.861 138.574C400.906 138.719 400.923 138.873 400.91 139.025C400.88 139.352 400.74 139.655 400.517 139.875C400.295 140.095 400.005 140.215 399.705 140.214V140.214Z" fill="#3F79FF"/>
<path opacity="0.2" d="M392.061 121.538H365.397C365.175 121.541 364.955 121.493 364.751 121.396C364.547 121.299 364.365 121.156 364.215 120.976C364.065 120.796 363.951 120.584 363.882 120.353C363.812 120.121 363.788 119.877 363.81 119.635V119.635C363.859 119.122 364.077 118.648 364.423 118.299C364.769 117.95 365.219 117.752 365.688 117.742H392.353C392.574 117.739 392.793 117.787 392.996 117.884C393.199 117.98 393.381 118.122 393.531 118.301C393.681 118.479 393.794 118.69 393.865 118.92C393.935 119.15 393.96 119.393 393.939 119.635V119.635C393.893 120.149 393.676 120.626 393.33 120.977C392.984 121.328 392.533 121.527 392.061 121.538V121.538Z" fill="#263238"/>
<path opacity="0.2" d="M381.029 127.833H364.96C364.739 127.836 364.52 127.787 364.317 127.691C364.114 127.595 363.932 127.453 363.782 127.274C363.632 127.096 363.519 126.885 363.448 126.655C363.378 126.425 363.353 126.182 363.374 125.94V125.94C363.42 125.426 363.637 124.949 363.983 124.598C364.329 124.247 364.78 124.047 365.252 124.036H381.371C381.593 124.034 381.813 124.082 382.017 124.179C382.221 124.276 382.403 124.419 382.553 124.599C382.703 124.779 382.816 124.991 382.886 125.222C382.956 125.453 382.98 125.698 382.957 125.94V125.94C382.908 126.462 382.683 126.944 382.326 127.294C381.97 127.644 381.508 127.836 381.029 127.833Z" fill="#263238"/>
<path opacity="0.5" d="M349.981 187.634H339.345C339.05 187.639 338.758 187.575 338.487 187.447C338.217 187.319 337.974 187.13 337.775 186.892C337.575 186.654 337.425 186.373 337.332 186.066C337.239 185.76 337.206 185.435 337.236 185.114L338.13 173.46C338.196 172.778 338.486 172.146 338.946 171.682C339.407 171.219 340.005 170.954 340.631 170.939H351.256C351.551 170.935 351.843 170.998 352.114 171.126C352.384 171.254 352.627 171.443 352.826 171.681C353.026 171.919 353.177 172.201 353.269 172.507C353.362 172.814 353.395 173.138 353.365 173.46L352.511 185.114C352.449 185.803 352.156 186.442 351.688 186.907C351.221 187.373 350.612 187.632 349.981 187.634V187.634Z" fill="#3F79FF"/>
<path opacity="0.5" d="M395.407 196.713H337.449C337.309 196.714 337.171 196.682 337.043 196.621C336.915 196.56 336.799 196.47 336.705 196.357C336.61 196.244 336.538 196.11 336.494 195.965C336.449 195.82 336.432 195.666 336.445 195.514C336.476 195.193 336.613 194.896 336.829 194.678C337.045 194.459 337.326 194.334 337.62 194.325H395.588C395.727 194.325 395.864 194.356 395.992 194.416C396.119 194.477 396.233 194.566 396.328 194.678C396.422 194.79 396.494 194.922 396.54 195.065C396.585 195.209 396.603 195.362 396.592 195.514C396.563 195.838 396.426 196.139 396.207 196.36C395.989 196.581 395.704 196.707 395.407 196.713V196.713Z" fill="#3F79FF"/>
<path opacity="0.2" d="M387.727 178.038H361.063C360.841 178.041 360.621 177.992 360.417 177.895C360.213 177.798 360.031 177.655 359.881 177.475C359.731 177.296 359.617 177.083 359.548 176.852C359.478 176.621 359.454 176.376 359.476 176.134V176.134C359.525 175.622 359.743 175.147 360.089 174.798C360.435 174.45 360.885 174.252 361.355 174.241H388.019C388.24 174.238 388.459 174.287 388.662 174.383C388.865 174.479 389.047 174.621 389.197 174.8C389.347 174.978 389.46 175.189 389.531 175.419C389.601 175.649 389.627 175.893 389.605 176.134V176.134C389.559 176.648 389.342 177.126 388.996 177.476C388.65 177.827 388.199 178.027 387.727 178.038V178.038Z" fill="#263238"/>
<path opacity="0.2" d="M376.698 184.333H360.539C360.318 184.335 360.099 184.287 359.896 184.191C359.693 184.094 359.511 183.952 359.361 183.774C359.211 183.595 359.098 183.384 359.027 183.154C358.957 182.925 358.931 182.681 358.953 182.44V182.44C358.999 181.926 359.216 181.448 359.562 181.097C359.908 180.747 360.359 180.547 360.831 180.536H376.95C377.172 180.533 377.392 180.582 377.596 180.679C377.799 180.776 377.982 180.919 378.132 181.098C378.282 181.278 378.395 181.491 378.465 181.722C378.535 181.953 378.559 182.198 378.536 182.44C378.488 182.944 378.276 183.414 377.939 183.761C377.602 184.109 377.161 184.312 376.698 184.333V184.333Z" fill="#263238"/>
<path d="M372.525 202.216H393.505C393.833 202.211 394.158 202.282 394.459 202.424C394.761 202.567 395.031 202.777 395.253 203.042C395.475 203.307 395.643 203.62 395.747 203.962C395.851 204.303 395.887 204.664 395.855 205.022L395.533 209.127C395.467 209.889 395.146 210.597 394.633 211.117C394.12 211.637 393.45 211.931 392.751 211.944H371.782C371.453 211.949 371.126 211.878 370.824 211.734C370.522 211.591 370.251 211.38 370.029 211.114C369.807 210.847 369.639 210.533 369.536 210.19C369.433 209.848 369.398 209.485 369.432 209.127L369.743 205.022C369.816 204.263 370.139 203.56 370.651 203.044C371.163 202.527 371.829 202.233 372.525 202.216Z" fill="#3F79FF"/>
<path d="M374.163 208.356H372.938L372.717 208.984H371.592L373.199 205.165H374.384L375.389 208.984H374.264L374.163 208.356ZM374.003 207.531L373.731 206.155L373.239 207.531H374.003Z" fill="white"/>
<path d="M378.121 207.421L379.045 207.74C378.97 208.006 378.847 208.253 378.683 208.466C378.535 208.656 378.35 208.806 378.141 208.907C377.891 209.011 377.625 209.06 377.358 209.05C377.045 209.065 376.733 209.005 376.444 208.874C376.195 208.735 375.994 208.511 375.871 208.235C375.71 207.874 375.651 207.468 375.701 207.069C375.718 206.52 375.922 205.998 376.273 205.605C376.645 205.253 377.127 205.071 377.619 205.099C377.973 205.077 378.324 205.177 378.623 205.385C378.88 205.612 379.054 205.932 379.115 206.287L378.111 206.519C378.097 206.43 378.07 206.345 378.031 206.265C377.982 206.177 377.913 206.105 377.83 206.056C377.741 206.003 377.64 205.976 377.538 205.979C377.423 205.977 377.308 206.007 377.205 206.064C377.102 206.122 377.013 206.206 376.946 206.309C376.819 206.535 376.75 206.793 376.745 207.058C376.69 207.353 376.729 207.66 376.856 207.927C376.908 208.009 376.979 208.075 377.062 208.117C377.145 208.16 377.236 208.178 377.328 208.169C377.416 208.176 377.505 208.162 377.588 208.127C377.671 208.093 377.747 208.04 377.81 207.971C377.961 207.826 378.07 207.634 378.121 207.421Z" fill="white"/>
<path d="M381.913 207.421L382.837 207.74C382.758 208.004 382.635 208.25 382.476 208.466C382.327 208.656 382.142 208.806 381.933 208.907C381.683 209.011 381.417 209.059 381.15 209.05C380.837 209.065 380.525 209.005 380.236 208.873C379.987 208.735 379.786 208.51 379.664 208.235C379.503 207.873 379.443 207.467 379.493 207.069C379.51 206.52 379.714 205.998 380.065 205.605C380.436 205.25 380.919 205.069 381.411 205.099C381.765 205.077 382.116 205.177 382.415 205.385C382.672 205.612 382.847 205.932 382.907 206.287L381.903 206.518C381.889 206.43 381.862 206.344 381.823 206.265C381.77 206.177 381.698 206.105 381.612 206.056C381.526 206.003 381.429 205.976 381.331 205.979C381.215 205.976 381.1 206.005 380.997 206.063C380.893 206.12 380.804 206.205 380.738 206.309C380.607 206.532 380.537 206.792 380.537 207.058C380.481 207.352 380.516 207.658 380.638 207.927C380.693 208.008 380.766 208.073 380.85 208.116C380.935 208.158 381.027 208.176 381.12 208.169C381.212 208.181 381.305 208.172 381.393 208.141C381.481 208.111 381.563 208.061 381.632 207.993C381.767 207.83 381.863 207.634 381.913 207.421V207.421Z" fill="white"/>
<path d="M383.557 205.165H386.449L386.379 205.979H384.571L384.521 206.585H386.208L386.138 207.366H384.461L384.401 208.125H386.269L386.198 208.984H383.256L383.557 205.165Z" fill="white"/>
<path d="M387.079 205.165H388.877C389.031 205.149 389.186 205.168 389.333 205.221C389.48 205.274 389.615 205.36 389.73 205.473C389.825 205.59 389.894 205.729 389.932 205.88C389.97 206.03 389.977 206.189 389.951 206.342C389.944 206.514 389.906 206.682 389.839 206.837C389.771 206.992 389.676 207.131 389.56 207.245C389.273 207.486 388.915 207.6 388.555 207.564H387.963L387.852 208.984H386.768L387.079 205.165ZM388.083 206.794H388.344C388.5 206.807 388.655 206.765 388.786 206.673C388.827 206.638 388.862 206.595 388.888 206.546C388.913 206.497 388.93 206.442 388.937 206.386C388.943 206.33 388.939 206.273 388.926 206.218C388.912 206.163 388.888 206.112 388.857 206.067C388.802 206.016 388.737 205.978 388.668 205.955C388.599 205.932 388.526 205.926 388.455 205.935H388.143L388.083 206.794Z" fill="white"/>
<path d="M390.36 205.165H393.684L393.604 206.111H392.509L392.278 208.984H391.203L391.424 206.111H390.33L390.36 205.165Z" fill="white"/>
<path opacity="0.5" d="M345.647 244.133H335.011C334.716 244.137 334.423 244.072 334.153 243.942C333.882 243.813 333.639 243.623 333.44 243.384C333.241 243.146 333.09 242.863 332.998 242.556C332.905 242.249 332.872 241.924 332.902 241.602L333.796 229.959C333.862 229.278 334.152 228.646 334.612 228.182C335.072 227.718 335.671 227.454 336.296 227.439H346.922C347.217 227.434 347.509 227.498 347.78 227.626C348.05 227.753 348.293 227.943 348.492 228.181C348.692 228.419 348.842 228.7 348.935 229.007C349.028 229.313 349.061 229.638 349.031 229.959L348.137 241.602C348.074 242.284 347.786 242.917 347.328 243.383C346.869 243.849 346.272 244.116 345.647 244.133Z" fill="#3F79FF"/>
<path opacity="0.25" d="M391.077 253.213H333.109C332.969 253.213 332.831 253.182 332.703 253.12C332.574 253.059 332.459 252.969 332.365 252.856C332.27 252.743 332.198 252.61 332.154 252.465C332.109 252.319 332.092 252.166 332.105 252.013V252.013C332.136 251.693 332.273 251.396 332.489 251.177C332.705 250.959 332.986 250.833 333.28 250.824H391.248C391.387 250.824 391.524 250.855 391.652 250.916C391.779 250.977 391.893 251.066 391.988 251.177C392.082 251.289 392.154 251.421 392.2 251.565C392.245 251.709 392.263 251.861 392.252 252.013C392.223 252.335 392.087 252.635 391.871 252.856C391.655 253.077 391.372 253.203 391.077 253.213V253.213Z" fill="#3F79FF"/>
<path opacity="0.2" d="M383.4 234.526H356.736C356.514 234.53 356.294 234.483 356.09 234.388C355.886 234.292 355.704 234.15 355.554 233.971C355.404 233.792 355.29 233.58 355.22 233.35C355.15 233.119 355.126 232.875 355.149 232.633V232.633C355.195 232.122 355.411 231.647 355.755 231.299C356.099 230.95 356.548 230.751 357.017 230.74H383.691C383.913 230.736 384.133 230.783 384.336 230.879C384.54 230.975 384.723 231.117 384.873 231.295C385.023 231.474 385.137 231.686 385.207 231.917C385.276 232.147 385.301 232.392 385.278 232.633C385.231 233.146 385.014 233.622 384.668 233.971C384.321 234.32 383.87 234.518 383.4 234.526V234.526Z" fill="#263238"/>
<path opacity="0.2" d="M372.375 240.832H356.306C356.084 240.835 355.864 240.786 355.66 240.689C355.456 240.592 355.273 240.449 355.123 240.269C354.974 240.09 354.86 239.877 354.79 239.646C354.721 239.415 354.697 239.17 354.719 238.928V238.928C354.768 238.418 354.984 237.944 355.328 237.596C355.672 237.248 356.119 237.048 356.587 237.035H372.716C372.937 237.032 373.157 237.081 373.36 237.177C373.563 237.273 373.745 237.415 373.895 237.594C374.044 237.772 374.158 237.984 374.228 238.213C374.299 238.443 374.324 238.687 374.303 238.928V238.928C374.255 239.451 374.031 239.937 373.675 240.289C373.318 240.641 372.855 240.834 372.375 240.832V240.832Z" fill="#263238"/>
<path d="M116.433 98.6262C116.533 105.229 116.854 116.828 113.681 120.9C120.973 123.513 127.513 128.172 132.652 134.414C137.001 126.623 131.336 122.441 131.336 122.441C125.07 120.24 126.315 115.926 127.61 111.172L116.433 98.6262Z" fill="#B55B52"/>
<path d="M110.972 132.753L107.277 140.544L103.631 148.347C102.446 150.955 101.281 153.552 100.206 156.116C99.6741 157.404 99.2021 158.68 98.7401 159.913C98.3398 160.958 98.0042 162.031 97.7358 163.126V161.376C97.8625 162.963 98.1282 164.533 98.5292 166.064C98.9698 167.762 99.4996 169.43 100.116 171.061C100.739 172.744 101.452 174.428 102.215 176.112C102.978 177.796 103.832 179.523 104.595 181.097L104.706 181.306C105.034 181.969 105.141 182.737 105.008 183.477C104.875 184.217 104.51 184.883 103.976 185.359C103.443 185.836 102.774 186.093 102.085 186.086C101.397 186.08 100.732 185.81 100.206 185.323C98.6987 183.942 97.2887 182.437 95.9883 180.822C94.6925 179.217 93.4916 177.522 92.3929 175.749C91.2458 173.905 90.2381 171.962 89.38 169.938C88.4434 167.772 87.7423 165.493 87.2911 163.148C87.2161 162.675 87.2161 162.191 87.2911 161.717V161.398C87.5135 159.563 87.8763 157.752 88.3758 155.984C88.8176 154.388 89.3198 152.892 89.832 151.406C90.8363 148.457 91.951 145.628 93.106 142.844C94.2609 140.06 95.4661 137.342 96.7114 134.601C97.9567 131.861 99.2422 129.231 100.648 126.546C101.424 125.104 102.681 124.049 104.153 123.602C105.625 123.155 107.198 123.352 108.54 124.151C109.882 124.95 110.889 126.288 111.348 127.885C111.808 129.481 111.684 131.21 111.003 132.708L110.972 132.753Z" fill="#B55B52"/>
<path d="M108.185 183.408L106.819 182.462L102.942 179.733L100.181 184.245C101.185 188.647 105.202 190.749 105.202 190.749L106.739 191.134C107.271 191.283 107.835 191.205 108.317 190.915C108.798 190.625 109.16 190.144 109.33 189.571L109.772 188.272C110.023 187.383 110.005 186.428 109.719 185.55C109.432 184.673 108.894 183.922 108.185 183.408Z" fill="#B55B52"/>
<path d="M185.319 164.073L203.507 152.616C203.79 152.434 204.106 152.318 204.433 152.278C204.759 152.239 205.09 152.275 205.403 152.385C205.716 152.495 206.004 152.677 206.249 152.918C206.493 153.159 206.688 153.454 206.821 153.783L208.398 157.514C208.684 158.212 208.727 159.001 208.518 159.731C208.309 160.461 207.862 161.082 207.263 161.475L189.075 172.921C188.796 173.106 188.484 173.224 188.16 173.269C187.836 173.313 187.507 173.283 187.195 173.179C186.882 173.075 186.593 172.9 186.346 172.666C186.099 172.432 185.9 172.144 185.761 171.82L184.185 168.089C183.884 167.385 183.834 166.583 184.043 165.841C184.253 165.098 184.708 164.468 185.319 164.073V164.073Z" fill="#3F79FF"/>
<path d="M189.536 168.497L188.471 169.168L188.561 169.839L187.607 170.444L187.266 166.241L188.27 165.602L190.881 168.365L189.877 168.981L189.536 168.497ZM189.013 167.869L188.15 166.835L188.351 168.288L189.013 167.869Z" fill="white"/>
<path d="M192.539 165.536L193.483 165.305C193.528 165.578 193.528 165.858 193.483 166.131C193.436 166.373 193.344 166.601 193.212 166.802C193.044 167.032 192.836 167.223 192.599 167.363C192.332 167.547 192.03 167.664 191.716 167.704C191.437 167.72 191.162 167.635 190.932 167.462C190.629 167.239 190.394 166.921 190.259 166.549C190.024 166.062 189.963 165.497 190.089 164.964C190.258 164.46 190.59 164.041 191.023 163.786C191.319 163.57 191.671 163.465 192.027 163.489C192.349 163.549 192.643 163.728 192.86 163.996L192.127 164.733C192.07 164.666 192.006 164.607 191.936 164.557C191.855 164.504 191.76 164.481 191.665 164.491C191.566 164.493 191.469 164.523 191.384 164.579C191.28 164.637 191.192 164.723 191.126 164.828C191.061 164.934 191.022 165.057 191.013 165.184C191.008 165.449 191.067 165.711 191.183 165.943C191.269 166.23 191.439 166.477 191.665 166.648C191.75 166.685 191.842 166.699 191.933 166.69C192.023 166.68 192.111 166.647 192.188 166.593C192.345 166.502 192.464 166.348 192.519 166.164C192.575 165.96 192.582 165.744 192.539 165.536Z" fill="white"/>
<path d="M195.835 163.456L196.779 163.225C196.833 163.497 196.833 163.779 196.779 164.051C196.741 164.299 196.648 164.533 196.508 164.733C196.34 164.963 196.132 165.154 195.895 165.294C195.631 165.478 195.332 165.594 195.021 165.635C194.743 165.651 194.468 165.566 194.238 165.393C193.929 165.169 193.69 164.847 193.555 164.469C193.32 163.986 193.262 163.423 193.395 162.895C193.553 162.383 193.888 161.96 194.329 161.717C194.624 161.5 194.977 161.395 195.333 161.42C195.656 161.478 195.951 161.657 196.166 161.927L195.423 162.664C195.374 162.589 195.308 162.529 195.232 162.488C195.151 162.433 195.056 162.41 194.961 162.422C194.862 162.425 194.766 162.456 194.68 162.51C194.579 162.57 194.492 162.657 194.429 162.762C194.366 162.868 194.328 162.989 194.318 163.115C194.326 163.396 194.388 163.672 194.5 163.924C194.613 164.177 194.773 164.4 194.971 164.579C195.056 164.615 195.148 164.629 195.238 164.619C195.329 164.61 195.416 164.577 195.494 164.524C195.651 164.433 195.77 164.279 195.825 164.095C195.878 163.886 195.881 163.667 195.835 163.456V163.456Z" fill="white"/>
<path d="M196.22 160.606L198.731 159.021L199.042 159.77L197.476 160.76L197.707 161.31L199.163 160.397L199.464 161.101L198.008 162.015L198.299 162.708L199.916 161.685L200.247 162.477L197.697 164.084L196.22 160.606Z" fill="white"/>
<path d="M199.284 158.68L200.841 157.701C200.967 157.606 201.109 157.54 201.259 157.505C201.409 157.471 201.564 157.471 201.714 157.503C201.85 157.551 201.974 157.633 202.076 157.742C202.179 157.85 202.258 157.983 202.307 158.13C202.379 158.283 202.423 158.451 202.435 158.623C202.447 158.795 202.427 158.968 202.377 159.131C202.241 159.494 201.987 159.788 201.664 159.957L201.152 160.276L201.704 161.574L200.76 162.169L199.284 158.68ZM200.861 159.572L201.092 159.429C201.233 159.357 201.35 159.238 201.423 159.087C201.445 159.032 201.457 158.972 201.457 158.911C201.457 158.851 201.445 158.791 201.423 158.735C201.38 158.636 201.305 158.558 201.212 158.515C201.14 158.503 201.067 158.506 200.996 158.525C200.926 158.544 200.859 158.578 200.8 158.625L200.539 158.801L200.861 159.572Z" fill="white"/>
<path d="M202.124 156.886L204.976 155.104L205.337 155.962L204.333 156.556L205.448 159.186L204.514 159.77L203.399 157.15L202.395 157.745L202.124 156.886Z" fill="white"/>
<path d="M179.469 165.877L176.456 167.374C175.865 167.661 175.402 168.192 175.166 168.852C174.931 169.511 174.944 170.246 175.2 170.896L176.275 173.658C176.41 173.989 176.614 174.281 176.87 174.51C177.126 174.74 177.428 174.9 177.751 174.978C180.322 175.562 184.028 173.944 186.689 172.48C187.125 172.247 187.51 171.915 187.819 171.506C188.129 171.097 188.355 170.621 188.483 170.109C188.611 169.596 188.639 169.06 188.563 168.536C188.488 168.011 188.311 167.51 188.045 167.066L186.88 165.107C186.386 164.293 185.621 163.723 184.749 163.517C183.877 163.312 182.966 163.487 182.21 164.007L179.469 165.877Z" fill="#B55B52"/>
<path d="M105.797 121.428C100.514 123.993 95.6837 130.1 91.7368 141.391C93.0123 146.046 106.068 153.684 106.068 153.684C106.068 153.684 122.358 115.816 105.797 121.428Z" fill="#263238"/>
<path d="M149.406 135.889C149.356 140.093 155.693 149.81 148.402 155.445C147.769 163.93 146.906 172.282 145.248 186.204H106.242C109.947 170.797 106.744 160.441 100.798 133.38C100.461 131.924 100.414 130.406 100.66 128.929C100.907 127.452 101.442 126.05 102.229 124.82C103.016 123.591 104.035 122.562 105.218 121.803C106.401 121.045 107.72 120.576 109.084 120.427C110.63 120.251 112.277 120.108 113.965 120.02C119.859 119.563 125.776 119.563 131.67 120.02C133.589 120.218 135.567 120.482 137.465 120.768C140.784 121.29 143.819 123.107 146.012 125.885C148.206 128.663 149.411 132.215 149.406 135.889V135.889Z" fill="#263238"/>
<path d="M131.816 118.688C122.828 116.179 103.576 116.487 100.071 119.448C96.5656 122.408 103.937 127.47 104.359 127.877C101.818 129.429 104.359 137.463 114.914 139.675C125.469 141.887 127.799 127.569 130.852 124.565C132.409 123.035 133.263 120.669 131.816 118.688Z" fill="#3F79FF"/>
<path opacity="0.2" d="M105.798 127.536C111.08 128.329 122.368 125.577 126.215 124.29C121.294 127.173 108.71 132.422 105.798 127.536Z" fill="black"/>
<path d="M148.196 130.794C148.739 133.732 149.271 136.813 149.873 139.807C150.476 142.8 151.059 145.826 151.691 148.787C152.324 151.747 153.027 154.685 153.79 157.503C154.172 158.911 154.604 160.287 155.025 161.574C155.405 162.743 155.861 163.879 156.391 164.975L154.383 162.983C154.383 162.983 154.453 162.983 154.483 163.049C154.513 163.115 154.764 163.17 154.905 163.247L156.18 163.665C157.114 163.952 158.189 164.194 159.193 164.425C161.302 164.865 163.502 165.294 165.711 165.668L172.41 166.824C174.639 167.242 176.909 167.605 179.139 168.045C179.833 168.183 180.459 168.589 180.904 169.19C181.348 169.79 181.582 170.545 181.563 171.318C181.543 172.091 181.272 172.831 180.798 173.403C180.324 173.976 179.678 174.343 178.978 174.439C176.638 174.758 174.338 174.923 172.008 175.111C169.678 175.298 167.358 175.342 164.978 175.364C162.598 175.386 160.278 175.364 157.858 175.155C156.642 175.056 155.417 174.945 154.112 174.736C153.449 174.637 152.776 174.505 152.033 174.318C151.641 174.197 151.3 174.12 150.828 173.944C150.593 173.869 150.361 173.781 150.135 173.68L149.311 173.273C148.598 172.906 147.987 172.336 147.543 171.622L147.343 171.281C146.385 169.675 145.542 167.99 144.822 166.241C144.139 164.623 143.587 163.027 143.044 161.453C141.98 158.284 141.096 155.148 140.302 152C139.509 148.853 138.806 145.716 138.163 142.569C137.521 139.422 136.958 136.296 136.496 133.017C136.252 131.347 136.616 129.64 137.508 128.261C138.4 126.881 139.75 125.94 141.268 125.639C142.786 125.338 144.351 125.701 145.628 126.651C146.904 127.6 147.79 129.06 148.096 130.717L148.196 130.794Z" fill="#B55B52"/>
<path d="M140.789 121.737C145.6 124.356 150.37 129.44 152.349 141.083C151.103 145.694 133.91 154.575 133.91 154.575C133.91 154.575 124.339 115.002 140.789 121.737Z" fill="#263238"/>
<path d="M140.105 93.5419C140.014 94.3783 140.346 95.1266 140.848 95.2037C141.35 95.2807 141.852 94.6865 141.933 93.8501C142.013 93.0137 141.691 92.2654 141.189 92.1773C140.687 92.0893 140.205 92.7056 140.105 93.5419Z" fill="#263238"/>
<path d="M140.968 92.1884L142.876 91.9243C142.876 91.9243 141.751 93.333 140.968 92.1884Z" fill="#263238"/>
<path d="M140.333 94.4553C140.801 96.4881 141.518 98.4426 142.462 100.266C142.029 100.503 141.554 100.634 141.07 100.649C140.586 100.665 140.105 100.564 139.66 100.354L140.333 94.4553Z" fill="#A02724"/>
<path d="M141.891 87.7753C142.005 87.773 142.113 87.7216 142.192 87.6323C142.276 87.5379 142.322 87.4116 142.322 87.2801C142.322 87.1487 142.276 87.0224 142.192 86.928C141.676 86.3535 141.042 85.9221 140.344 85.6695C139.645 85.4169 138.902 85.3503 138.175 85.4753C138.117 85.4895 138.062 85.5163 138.014 85.5541C137.966 85.5919 137.925 85.64 137.894 85.6954C137.863 85.7509 137.843 85.8126 137.834 85.8769C137.825 85.9411 137.829 86.0067 137.844 86.0696C137.872 86.199 137.946 86.3109 138.05 86.381C138.153 86.451 138.277 86.4736 138.396 86.4438C138.968 86.3607 139.55 86.4249 140.096 86.6312C140.641 86.8375 141.136 87.1803 141.539 87.6323C141.585 87.6829 141.64 87.722 141.701 87.7467C141.761 87.7714 141.826 87.7812 141.891 87.7753V87.7753Z" fill="#263238"/>
<path d="M114.981 86.4658C114.369 96.8435 113.917 101.212 117.994 107.298C124.131 116.432 135.75 115.332 139.085 105.438C142.097 96.5353 142.61 81.0624 134.003 75.4168C132.151 74.1626 130.033 73.4611 127.857 73.382C125.681 73.303 123.525 73.8492 121.602 74.9663C119.678 76.0835 118.055 77.7327 116.894 79.75C115.733 81.7674 115.073 84.0827 114.981 86.4658V86.4658Z" fill="#B55B52"/>
<path d="M133.567 95.8309C140.015 93.0797 139.161 85.2002 135.817 82.0748C142.355 85.0131 146.864 82.724 141.923 74.9215C136.982 67.119 109.946 65.4793 113.682 77.5847C101.631 73.3368 105.166 90.9117 105.799 102.434C97.0812 112.063 118.774 120.416 132.493 115.552C146.211 110.688 133.567 95.8309 133.567 95.8309Z" fill="#263238"/>
<path d="M131.097 94.3784C131.85 97.0195 132.101 98.1531 133.568 99.4186C135.757 101.322 138.318 100.299 138.248 97.6028C138.187 95.1707 136.972 91.264 134.512 90.3946C132.051 89.5252 130.344 91.7372 131.097 94.3784Z" fill="#B55B52"/>
<path d="M145.236 186.203C145.236 186.203 146.612 241.371 148.45 277.677C150.398 310.977 152.899 388.881 152.899 388.881L145.226 389.322C145.226 389.322 128.223 323.776 128.946 284.169C108.991 228.771 116.162 187.865 116.162 187.865L145.236 186.203Z" fill="#B55B52"/>
<path d="M152.329 385.404C152.5 385.269 152.705 385.196 152.916 385.196C153.127 385.196 153.333 385.269 153.504 385.404C157.19 388.414 161.661 390.046 166.258 390.059C171.36 390.301 170.095 393.361 162.794 394.373C154.217 395.551 152.369 397.476 149.597 398.247C146.825 399.017 144.576 396.695 144.676 390.312C144.681 390.093 144.746 389.881 144.863 389.702C144.979 389.524 145.141 389.387 145.329 389.311C147.792 388.308 150.14 386.997 152.329 385.404V385.404Z" fill="#263238"/>
<path d="M135.041 186.203C135.041 186.203 120.981 251.496 112.836 281.88C104.27 313.795 97.4908 386.625 97.531 389.046H90.8926C90.8926 389.046 82.3059 330.016 92.9012 281.858C93.9055 203.723 106.198 186.203 106.198 186.203H135.041Z" fill="#B55B52"/>
<path d="M97.7149 386.405C97.8886 386.325 98.0818 386.31 98.2639 386.364C98.4459 386.418 98.6062 386.537 98.7192 386.702C100.437 389.134 101.732 391.842 106.754 394.219C110.942 396.189 108.632 398.874 102.053 397.883C94.3305 396.728 94.23 398.103 91.6189 398.103C89.0077 398.103 87.7925 395.264 89.6906 389.09C89.7524 388.886 89.8633 388.703 90.0118 388.562C90.1602 388.421 90.3407 388.326 90.5342 388.287C92.9889 387.983 95.4004 387.351 97.7149 386.405V386.405Z" fill="#263238"/>
<path d="M90.4917 266.936C89.7084 275.002 88.2622 292.489 88.2622 292.489C88.2622 292.489 111.361 297.684 151.854 295.075C151.643 289.749 151.603 282.046 151.603 282.046L90.4917 266.936Z" fill="#263238"/>
<path d="M145.237 185.983C150.85 221.537 153.416 257.589 152.9 293.667C130.99 293.456 109.142 291.08 87.6208 286.568C87.6208 286.568 88.8059 211.009 106.241 185.994C116.314 183.386 145.006 185.136 145.237 185.983Z" fill="#3F79FF"/>
<path opacity="0.2" d="M104.608 216.06C116.328 225.788 125.216 227.626 125.216 227.626C125.216 227.626 115.625 231.346 104.608 216.06Z" fill="black"/>
</svg>
