<svg width="87" height="87" viewBox="0 0 87 87" fill="none" xmlns="http://www.w3.org/2000/svg">
<g clip-path="url(#clip0_1212_3924)">
<path d="M58.3119 57.9609C57.5148 57.9609 56.8771 58.5632 56.7885 59.3603C56.0977 66.1978 50.323 71.5297 43.2906 71.5297C36.276 71.5297 30.5013 66.1978 29.7927 59.3603C29.7042 58.5809 29.0665 57.9609 28.2694 57.9609H9.84704C5.98544 57.9609 2.8501 61.0963 2.8501 64.9579V79.6249C2.8501 83.4865 5.98544 86.6218 9.84704 86.6218H76.7697C80.6313 86.6218 83.7666 83.4865 83.7666 79.6249V64.9756C83.7666 61.114 80.6313 57.9786 76.7697 57.9786H58.3119V57.9609Z" fill="white"/>
<path d="M53.7595 35.1805L48.2859 40.6541V4.97855C48.2859 2.23291 46.054 0.000976562 43.3084 0.000976562C40.5627 0.000976562 38.3308 2.23291 38.3308 4.97855V40.6541L32.8572 35.1805C31.1744 33.4977 28.4819 33.0726 26.498 34.4011C23.7878 36.2079 23.5221 39.9101 25.7009 42.0889L40.3679 56.7559C41.9975 58.3856 44.6369 58.3856 46.2666 56.7559L60.9336 42.0889C63.1124 39.9101 62.8466 36.2079 60.1364 34.4011C58.1348 33.0549 55.4423 33.48 53.7595 35.1805Z" fill="white"/>
</g>
<defs>
<clipPath id="clip0_1212_3924">
<rect width="86.6204" height="86.6204" fill="white"/>
</clipPath>
</defs>
</svg>
