<svg width="588" height="424" viewBox="0 0 588 424" fill="none" xmlns="http://www.w3.org/2000/svg">
<path d="M511.202 170.721H188.581V219.623H511.202V170.721Z" fill="white"/>
<path d="M511.749 220.159H188.035V170.174H511.749V220.159ZM189.128 219.066H510.656V171.267H189.128V219.066Z" fill="#DBDBDB"/>
<path d="M217.066 183.968C217.694 185.782 218.122 187.658 218.345 189.564C218.819 193.284 218.819 197.048 218.345 200.768C218.117 202.674 217.685 204.551 217.055 206.364C216.42 204.552 215.987 202.675 215.765 200.768C215.299 197.048 215.299 193.284 215.765 189.564C216 187.658 216.436 185.782 217.066 183.968Z" fill="#37474F"/>
<path d="M228.258 195.161C226.448 195.806 224.57 196.246 222.662 196.473C220.806 196.709 218.936 196.826 217.065 196.823C215.194 196.832 213.325 196.715 211.469 196.473C209.558 196.252 207.677 195.819 205.862 195.183C207.68 194.557 209.56 194.125 211.469 193.893C213.325 193.657 215.194 193.54 217.065 193.544C218.937 193.549 220.805 193.67 222.662 193.904C224.567 194.118 226.444 194.54 228.258 195.161Z" fill="#37474F"/>
<path d="M224.98 187.248C224.141 188.974 223.118 190.605 221.93 192.112C220.789 193.594 219.551 195 218.225 196.32C216.903 197.647 215.497 198.888 214.016 200.036C212.506 201.225 210.871 202.247 209.141 203.086C209.98 201.356 211.003 199.722 212.191 198.211C213.339 196.73 214.58 195.325 215.907 194.003C217.232 192.682 218.638 191.444 220.116 190.297C221.624 189.111 223.255 188.089 224.98 187.248Z" fill="#37474F"/>
<path d="M224.98 203.086C223.255 202.244 221.624 201.222 220.116 200.036C218.635 198.888 217.229 197.647 215.907 196.32C214.569 194.998 213.32 193.588 212.169 192.101C210.981 190.59 209.958 188.955 209.12 187.226C210.851 188.061 212.486 189.083 213.995 190.275C216.961 192.567 219.62 195.231 221.908 198.2C223.105 199.713 224.135 201.351 224.98 203.086Z" fill="#37474F"/>
<path d="M260.723 183.968C261.35 185.782 261.779 187.658 262.002 189.564C262.236 191.421 262.356 193.29 262.362 195.161C262.366 197.035 262.249 198.908 262.013 200.768C261.78 202.673 261.348 204.549 260.723 206.364C260.088 204.552 259.655 202.675 259.433 200.768C259.191 198.909 259.074 197.035 259.083 195.161C259.08 193.29 259.197 191.42 259.433 189.564C259.659 187.658 260.092 185.781 260.723 183.968Z" fill="#37474F"/>
<path d="M271.916 195.161C270.104 195.797 268.227 196.23 266.319 196.451C264.463 196.687 262.594 196.804 260.723 196.801C258.848 196.81 256.975 196.693 255.116 196.451C253.208 196.229 251.331 195.796 249.519 195.161C251.334 194.536 253.21 194.104 255.116 193.871C256.975 193.635 258.848 193.518 260.723 193.522C262.594 193.528 264.463 193.648 266.319 193.882C268.226 194.105 270.102 194.534 271.916 195.161Z" fill="#37474F"/>
<path d="M268.636 187.248C267.797 188.974 266.775 190.605 265.586 192.112C264.445 193.594 263.207 195 261.881 196.32C260.559 197.647 259.153 198.888 257.673 200.036C256.162 201.225 254.527 202.247 252.798 203.086C253.636 201.356 254.659 199.722 255.847 198.211C256.995 196.73 258.236 195.325 259.564 194.003C260.883 192.676 262.289 191.439 263.772 190.297C265.279 189.109 266.91 188.086 268.636 187.248Z" fill="#37474F"/>
<path d="M268.636 203.086C266.91 202.247 265.279 201.224 263.772 200.036C262.287 198.894 260.881 197.652 259.564 196.32C258.248 194.996 257.021 193.586 255.891 192.101C254.703 190.59 253.68 188.955 252.841 187.226C254.573 188.061 256.208 189.083 257.716 190.275C260.683 192.567 263.342 195.231 265.63 198.2C266.804 199.716 267.812 201.354 268.636 203.086Z" fill="#37474F"/>
<path d="M304.368 183.968C305.004 185.78 305.436 187.657 305.657 189.564C305.893 191.42 306.01 193.29 306.007 195.161C306.016 197.035 305.899 198.909 305.657 200.768C305.435 202.675 305.003 204.552 304.368 206.364C303.741 204.55 303.312 202.674 303.089 200.768C302.849 198.908 302.728 197.035 302.728 195.161C302.734 193.29 302.855 191.421 303.089 189.564C303.311 187.658 303.74 185.782 304.368 183.968Z" fill="#37474F"/>
<path d="M315.571 195.161C313.759 195.796 311.882 196.229 309.974 196.451C308.115 196.687 306.242 196.804 304.367 196.801C302.496 196.809 300.626 196.692 298.771 196.451C296.863 196.23 294.986 195.797 293.174 195.161C294.989 194.535 296.865 194.103 298.771 193.871C300.627 193.636 302.496 193.519 304.367 193.522C306.242 193.527 308.114 193.648 309.974 193.882C311.88 194.106 313.757 194.535 315.571 195.161Z" fill="#37474F"/>
<path d="M312.291 187.248C311.452 188.974 310.43 190.605 309.241 192.112C308.1 193.594 306.862 195 305.536 196.32C304.214 197.647 302.808 198.888 301.328 200.036C299.817 201.225 298.182 202.247 296.453 203.086C297.288 201.354 298.31 199.719 299.502 198.211C300.649 196.733 301.887 195.327 303.208 194.003C304.534 192.679 305.943 191.441 307.427 190.297C308.934 189.109 310.565 188.086 312.291 187.248Z" fill="#37474F"/>
<path d="M312.291 203.086C310.565 202.247 308.934 201.224 307.427 200.036C305.94 198.891 304.531 197.65 303.208 196.32C301.884 194.994 300.646 193.585 299.502 192.101C298.31 190.592 297.288 188.958 296.453 187.226C298.185 188.061 299.819 189.083 301.328 190.275C304.294 192.567 306.953 195.231 309.241 198.2C310.431 199.714 311.453 201.352 312.291 203.086Z" fill="#37474F"/>
<path d="M348.023 183.968C348.654 185.781 349.086 187.658 349.312 189.564C349.779 193.284 349.779 197.048 349.312 200.768C349.09 202.675 348.658 204.552 348.023 206.364C347.393 204.551 346.96 202.674 346.733 200.768C346.497 198.908 346.38 197.035 346.383 195.161C346.389 193.29 346.51 191.421 346.744 189.564C346.966 187.658 347.395 185.782 348.023 183.968Z" fill="#37474F"/>
<path d="M359.227 195.161C357.415 195.796 355.538 196.229 353.631 196.451C351.771 196.687 349.898 196.804 348.023 196.801C346.152 196.809 344.283 196.692 342.427 196.451C340.519 196.23 338.642 195.797 336.831 195.161C338.645 194.535 340.521 194.103 342.427 193.871C344.283 193.636 346.152 193.519 348.023 193.522C349.898 193.527 351.771 193.648 353.631 193.882C355.537 194.106 357.413 194.535 359.227 195.161Z" fill="#37474F"/>
<path d="M355.947 187.248C355.108 188.974 354.086 190.605 352.898 192.112C351.752 193.594 350.511 195 349.181 196.32C347.864 197.652 346.458 198.894 344.973 200.036C343.466 201.224 341.835 202.247 340.109 203.086C340.94 201.351 341.963 199.716 343.159 198.211C344.303 196.73 345.54 195.325 346.864 194.003C348.189 192.682 349.594 191.444 351.072 190.297C352.585 189.111 354.219 188.089 355.947 187.248Z" fill="#37474F"/>
<path d="M355.947 203.086C354.219 202.244 352.585 201.222 351.072 200.036C349.592 198.888 348.186 197.647 346.864 196.32C345.538 195.004 344.3 193.602 343.159 192.123C341.963 190.617 340.94 188.982 340.109 187.248C341.838 188.082 343.469 189.105 344.973 190.297C346.458 191.436 347.864 192.673 349.181 194.003C350.508 195.329 351.75 196.738 352.898 198.222C354.086 199.729 355.108 201.359 355.947 203.086Z" fill="#37474F"/>
<path d="M391.678 183.968C392.304 185.783 392.737 187.659 392.968 189.564C393.435 193.284 393.435 197.048 392.968 200.768C392.746 202.675 392.313 204.552 391.678 206.364C391.048 204.551 390.616 202.674 390.389 200.768C389.915 197.048 389.915 193.284 390.389 189.564C390.615 187.658 391.047 185.781 391.678 183.968Z" fill="#37474F"/>
<path d="M402.883 195.161C401.068 195.798 399.187 196.23 397.276 196.451C395.42 196.688 393.551 196.804 391.68 196.801C389.808 196.81 387.939 196.693 386.083 196.451C384.179 196.23 382.306 195.798 380.498 195.161C382.312 194.534 384.188 194.102 386.094 193.871C387.95 193.635 389.819 193.518 391.69 193.522C393.562 193.527 395.431 193.648 397.287 193.882C399.193 194.106 401.069 194.534 402.883 195.161Z" fill="#37474F"/>
<path d="M399.604 187.248C398.765 188.976 397.739 190.608 396.543 192.112C394.247 195.074 391.589 197.736 388.629 200.036C387.122 201.224 385.492 202.247 383.765 203.086C384.596 201.351 385.619 199.716 386.815 198.211C387.959 196.73 389.197 195.325 390.52 194.003C391.845 192.682 393.251 191.444 394.729 190.297C396.239 189.109 397.874 188.086 399.604 187.248Z" fill="#37474F"/>
<path d="M399.604 203.086C397.874 202.247 396.239 201.225 394.729 200.036C393.248 198.888 391.842 197.647 390.52 196.32C389.194 195.004 387.956 193.602 386.815 192.123C385.619 190.617 384.596 188.982 383.765 187.248C385.494 188.082 387.125 189.105 388.629 190.297C390.114 191.436 391.52 192.673 392.838 194.003C394.164 195.326 395.402 196.735 396.543 198.222C397.739 199.726 398.765 201.357 399.604 203.086Z" fill="#37474F"/>
<path d="M435.334 183.968C435.962 185.782 436.39 187.658 436.613 189.564C437.086 193.284 437.086 197.048 436.613 200.768C436.385 202.674 435.953 204.551 435.323 206.364C434.688 204.552 434.255 202.675 434.033 200.768C433.567 197.048 433.567 193.284 434.033 189.564C434.268 187.658 434.704 185.782 435.334 183.968Z" fill="#37474F"/>
<path d="M446.527 195.161C444.716 195.799 442.839 196.231 440.931 196.451C439.075 196.687 437.206 196.804 435.335 196.801C433.463 196.81 431.594 196.693 429.738 196.451C427.827 196.23 425.947 195.798 424.131 195.161C425.949 194.535 427.829 194.103 429.738 193.871C431.594 193.635 433.464 193.518 435.335 193.522C437.206 193.528 439.075 193.648 440.931 193.882C442.837 194.104 444.714 194.532 446.527 195.161Z" fill="#37474F"/>
<path d="M443.248 187.248C442.417 188.978 441.394 190.61 440.198 192.112C439.06 193.597 437.822 195.003 436.493 196.32C435.171 197.647 433.765 198.888 432.284 200.036C430.776 201.222 429.145 202.244 427.42 203.086C428.251 201.354 429.27 199.719 430.459 198.211C432.759 195.251 435.421 192.593 438.384 190.297C439.892 189.111 441.523 188.089 443.248 187.248Z" fill="#37474F"/>
<path d="M443.248 203.086C441.523 202.244 439.892 201.222 438.384 200.036C435.428 197.733 432.767 195.075 430.459 192.123C429.27 190.614 428.251 188.979 427.42 187.248C429.147 188.085 430.778 189.107 432.284 190.297C433.765 191.441 435.171 192.679 436.493 194.003C437.819 195.326 439.057 196.735 440.198 198.222C441.394 199.723 442.417 201.355 443.248 203.086Z" fill="#37474F"/>
<path d="M405.057 185.28V244.807H388.235V185.28C388.235 162.643 371.042 144.236 349.892 144.236C328.741 144.236 311.548 162.643 311.548 185.28V244.807H294.726V185.28C294.726 152.86 319.472 126.518 349.892 126.518C380.311 126.518 405.057 152.86 405.057 185.28Z" fill="#455A64"/>
<path d="M294.726 200.757L311.548 201.435V244.806H294.726V200.757Z" fill="#263238"/>
<path d="M405.058 205.248V244.805H388.236V204.56L405.058 205.248Z" fill="#263238"/>
<path d="M426.623 210.911H273.172V350.132H426.623V210.911Z" fill="#027EFF"/>
<path opacity="0.1" d="M426.612 210.911H349.891V350.132H426.612V210.911Z" fill="black"/>
<path d="M356.385 285.62L362.801 316.083H335.541L341.968 285.62C339.455 284.054 337.52 281.712 336.456 278.948C335.392 276.185 335.258 273.15 336.072 270.303C336.887 267.456 338.606 264.952 340.97 263.169C343.335 261.386 346.215 260.422 349.177 260.422C352.138 260.422 355.018 261.386 357.383 263.169C359.747 264.952 361.467 267.456 362.281 270.303C363.095 273.15 362.961 276.185 361.897 278.948C360.833 281.712 358.898 284.054 356.385 285.62Z" fill="#263238"/>
<path d="M305.319 285.565C305.319 285.565 297.296 349.792 284.114 364.264C268.286 381.599 256.788 379.064 250.404 388.005C244.021 379.053 232.533 381.599 216.684 364.253C203.502 349.792 195.49 285.554 195.49 285.554C230.227 268.7 250.426 249.801 250.426 249.801C251.027 250.391 271.117 268.973 305.319 285.565Z" fill="#EBEBEB"/>
<path d="M250.425 249.812V387.994C244.041 379.042 232.554 381.589 216.705 364.242C203.523 349.781 195.511 285.543 195.511 285.543C230.225 268.7 250.425 249.801 250.425 249.801V249.812Z" fill="#DBDBDB"/>
<path d="M296.804 290.746C296.804 290.746 290.027 344.994 278.889 357.214C265.499 371.882 255.793 369.729 250.393 377.282C244.994 369.729 235.287 371.882 221.909 357.214C210.771 344.994 204.005 290.746 204.005 290.746C233.353 276.537 250.393 260.524 250.393 260.524C250.393 260.524 267.456 276.493 296.804 290.746Z" fill="#DBDBDB"/>
<path d="M204.016 290.746C204.016 290.746 210.792 344.994 221.931 357.214C235.298 371.872 244.961 369.729 250.426 377.26V260.546C249.89 261.027 232.937 276.712 204.016 290.746Z" fill="#C7C7C7"/>
<path d="M265.615 334.115C274.015 325.715 274.015 312.095 265.615 303.694C257.214 295.293 243.594 295.293 235.194 303.694C226.793 312.095 226.793 325.715 235.194 334.115C243.594 342.516 257.214 342.516 265.615 334.115Z" fill="#027EFF"/>
<path d="M247.955 332.884L238.369 322.915L241.922 319.494L247.201 324.992L258.591 307.525L262.722 310.214L247.955 332.884Z" fill="white"/>
<path d="M176.193 393.166L178.745 380.1L331.379 409.907C332.773 410.18 334.002 410.994 334.795 412.173C335.589 413.351 335.881 414.796 335.609 416.19L335.11 418.744C334.838 420.138 334.023 421.367 332.845 422.16C331.667 422.953 330.221 423.246 328.827 422.974L176.193 393.166Z" fill="#027EFF"/>
<path opacity="0.1" d="M178.733 380.087L176.18 393.164L194.61 396.763L197.164 383.686L178.733 380.087Z" fill="black"/>
<path d="M120.354 363.424L115.862 386.662C115.102 390.557 115.116 394.564 115.905 398.454C116.693 402.344 118.241 406.041 120.458 409.333C122.675 412.625 125.519 415.448 128.827 417.641C132.135 419.834 135.843 421.354 139.739 422.114C143.635 422.874 147.642 422.859 151.532 422.071C155.422 421.282 159.118 419.735 162.41 417.518C165.703 415.301 168.526 412.457 170.719 409.149C172.912 405.84 174.432 402.132 175.192 398.237L179.717 375.053C181.259 367.181 179.611 359.019 175.135 352.362C170.659 345.705 163.722 341.099 155.85 339.557C147.978 338.015 139.816 339.663 133.159 344.139C126.502 348.615 121.896 355.552 120.354 363.424ZM170.186 369.228C168.841 376.125 162.818 381.098 155.375 382.289C161.824 386.213 165.54 393.067 164.185 399.964C162.392 409.189 152.216 414.982 141.471 412.883C130.727 410.785 123.502 401.592 125.305 392.378C126.65 385.481 132.672 380.508 140.127 379.262C133.667 375.36 129.962 368.484 131.306 361.587C133.11 352.351 143.264 346.58 153.998 348.678C164.731 350.777 172.033 360.002 170.229 369.228H170.186Z" fill="#027EFF"/>
<path d="M179.881 374.197L175.027 399.053C174.765 400.392 175.639 401.689 176.978 401.951L178.158 402.181C179.497 402.443 180.794 401.569 181.056 400.23L185.91 375.374C186.171 374.035 185.298 372.737 183.959 372.476L182.779 372.246C181.44 371.984 180.142 372.858 179.881 374.197Z" fill="#027EFF"/>
<path d="M185.91 375.376L181.056 400.233C180.794 401.572 181.668 402.869 183.007 403.13L184.187 403.361C185.526 403.622 186.823 402.749 187.085 401.41L191.939 376.554C192.2 375.215 191.327 373.917 189.988 373.656L188.808 373.425C187.469 373.164 186.171 374.037 185.91 375.376Z" fill="#027EFF"/>
<path d="M294.902 397.177L299.449 398.062L302.017 384.858L305.909 385.612L304.564 392.498L309.1 393.384L310.445 386.498L313.888 387.164L311.756 398.051L316.303 398.947L318.435 388.061L323.31 389.012L320.479 403.549L325.026 404.434L327.868 389.897L332.48 390.804L328.851 409.386L288.234 401.45L291.852 382.869L297.47 383.962L294.902 397.177Z" fill="#027EFF"/>
</svg>
