<svg width="16" height="16" viewBox="0 0 16 16" fill="none" xmlns="http://www.w3.org/2000/svg">
<path d="M14.6667 5.51398V2.82065C14.6667 1.76065 14.24 1.33398 13.18 1.33398H10.4867C9.42667 1.33398 9 1.76065 9 2.82065V5.51398C9 6.57398 9.42667 7.00065 10.4867 7.00065H13.18C14.24 7.00065 14.6667 6.57398 14.6667 5.51398Z" stroke="#081F55" stroke-width="1.5" stroke-linecap="round" stroke-linejoin="round"/>
<path d="M6.9987 5.68065V2.65398C6.9987 1.71398 6.57203 1.33398 5.51203 1.33398H2.8187C1.7587 1.33398 1.33203 1.71398 1.33203 2.65398V5.67398C1.33203 6.62065 1.7587 6.99398 2.8187 6.99398H5.51203C6.57203 7.00065 6.9987 6.62065 6.9987 5.68065Z" stroke="#081F55" stroke-width="1.5" stroke-linecap="round" stroke-linejoin="round"/>
<path d="M6.9987 13.18V10.4867C6.9987 9.42667 6.57203 9 5.51203 9H2.8187C1.7587 9 1.33203 9.42667 1.33203 10.4867V13.18C1.33203 14.24 1.7587 14.6667 2.8187 14.6667H5.51203C6.57203 14.6667 6.9987 14.24 6.9987 13.18Z" stroke="#081F55" stroke-width="1.5" stroke-linecap="round" stroke-linejoin="round"/>
<path d="M10 10.334H14" stroke="#081F55" stroke-width="1.5" stroke-linecap="round"/>
<path d="M10 13H14" stroke="#081F55" stroke-width="1.5" stroke-linecap="round"/>
</svg>
