<svg width="108" height="108" viewBox="0 0 108 108" fill="none" xmlns="http://www.w3.org/2000/svg">
<path d="M58.0051 26.4639H22.9949C15.2999 26.4639 9 32.7638 9 40.4588V91.5789C9 98.1039 13.68 100.894 19.395 97.6988L37.08 87.8438C38.97 86.8088 42.03 86.8088 43.875 87.8438L61.56 97.6988C67.275 100.894 71.955 98.1039 71.955 91.5789V40.4588C72 32.7638 65.7001 26.4639 58.0051 26.4639Z" stroke="white" stroke-width="1.5" stroke-linecap="round" stroke-linejoin="round"/>
<path d="M72 40.4588V91.5789C72 98.1039 67.32 100.849 61.605 97.6988L43.92 87.8438C42.03 86.8088 38.97 86.8088 37.08 87.8438L19.395 97.6988C13.68 100.849 9 98.1039 9 91.5789V40.4588C9 32.7638 15.2999 26.4639 22.9949 26.4639H58.0051C65.7001 26.4639 72 32.7638 72 40.4588Z" fill="white" stroke="white" stroke-width="1.5" stroke-linecap="round" stroke-linejoin="round"/>
<path d="M99 22.9949V74.115C99 80.64 94.32 83.3849 88.605 80.2349L72 70.965V40.455C72 32.76 65.7001 26.46 58.0051 26.46H36V22.9949C36 15.2999 42.2999 9 49.9949 9H85.0051C92.7001 9 99 15.2999 99 22.9949Z" stroke="white" stroke-width="1.5" stroke-linecap="round" stroke-linejoin="round"/>
</svg>
