<svg width="33" height="15" viewBox="0 0 33 15" fill="none" xmlns="http://www.w3.org/2000/svg">
<path d="M30.4589 1.031L30.0692 0.835938L20.3888 5.64375C17.7875 6.95622 14.7174 6.95622 12.1161 5.64375L2.50065 0.835938L2.08915 1.031C1.24695 1.45736 0.593282 2.18141 0.254236 3.06239C-0.0847453 3.94303 -0.0847453 4.91866 0.254236 5.79964C0.593217 6.68064 1.24687 7.40428 2.08915 7.83104L13.61 13.5699C15.2868 14.4084 17.2606 14.4084 18.9373 13.5699L30.4582 7.83104C31.3004 7.40431 31.9541 6.68062 32.2931 5.79964C32.6321 4.91864 32.6321 3.943 32.2931 3.06239C31.9541 2.18139 31.3005 1.45738 30.4582 1.031H30.4589Z" fill="white"/>
</svg>
