<svg width="24" height="24" viewBox="0 0 24 24" fill="none" xmlns="http://www.w3.org/2000/svg">
<path d="M21.8095 3.93988C20.2695 7.77988 16.4095 12.9999 13.1795 15.5899L11.2095 17.1699C10.9595 17.3499 10.7095 17.5099 10.4295 17.6199C10.4295 17.4399 10.4195 17.2399 10.3895 17.0499C10.2795 16.2099 9.89953 15.4299 9.22953 14.7599C8.54953 14.0799 7.71953 13.6799 6.86953 13.5699C6.66953 13.5599 6.46953 13.5399 6.26953 13.5599C6.37953 13.2499 6.54953 12.9599 6.75953 12.7199L8.31953 10.7499C10.8995 7.51988 16.1395 3.63988 19.9695 2.10988C20.5595 1.88988 21.1295 2.04988 21.4895 2.41988C21.8695 2.78988 22.0495 3.35988 21.8095 3.93988Z" stroke="#113FAA" stroke-width="1.5" stroke-linecap="round" stroke-linejoin="round"/>
<path d="M10.4303 17.6208C10.4303 18.7208 10.0103 19.7708 9.22027 20.5708C8.61027 21.1808 7.78027 21.6008 6.79027 21.7308L4.33027 22.0008C2.99027 22.1508 1.84027 21.0108 2.00027 19.6508L2.27027 17.1908C2.51027 15.0008 4.34027 13.6008 6.28027 13.5608C6.48027 13.5508 6.69027 13.5608 6.88027 13.5708C7.73027 13.6808 8.56027 14.0708 9.24027 14.7608C9.91027 15.4308 10.2903 16.2108 10.4003 17.0508C10.4103 17.2408 10.4303 17.4308 10.4303 17.6208Z" stroke="#113FAA" stroke-width="1.5" stroke-linecap="round" stroke-linejoin="round"/>
<path d="M14.2398 14.4702C14.2398 11.8602 12.1198 9.74023 9.50977 9.74023" stroke="#113FAA" stroke-width="1.5" stroke-linecap="round" stroke-linejoin="round"/>
</svg>
